<svg xmlns="http://www.w3.org/2000/svg" version="1.1" xmlns:xlink="http://www.w3.org/1999/xlink" xmlns:svgjs="http://svgjs.dev/svgjs" width="2000" height="1500" viewBox="0 0 2000 1500"><rect width="2000" height="1500" fill="#1c212d"></rect><g transform="matrix(0.75,0,0,0.75,249.09090909818974,570.9895042743733)"><svg viewBox="0 0 396 94" data-background-color="#1c212d" preserveAspectRatio="xMidYMid meet" height="474" width="2000" xmlns="http://www.w3.org/2000/svg" xmlns:xlink="http://www.w3.org/1999/xlink"><g id="tight-bounds" transform="matrix(1,0,0,1,0.23999999807790573,0.33329563490551095)"><svg viewBox="0 0 395.52 92.75333590941301" height="92.75333590941301" width="395.52"><g><svg viewBox="0 0 670.6453300425222 157.27293581491003" height="92.75333590941301" width="395.52"><g transform="matrix(1,0,0,1,275.12533004252225,40.19019541388175)"><svg viewBox="0 0 395.52 76.89254498714652" height="76.89254498714652" width="395.52"><g id="textblocktransform"><svg viewBox="0 0 395.52 76.89254498714652" height="76.89254498714652" width="395.52" id="textblock"><g><svg viewBox="0 0 395.52 76.89254498714652" height="76.89254498714652" width="395.52"><g transform="matrix(1,0,0,1,0,0)"><svg width="395.52" viewBox="1.5 -35.85 186.70923076612297 36.300000000000004" height="76.89254498714652" data-palette-color="#ffffff"><g class="wordmark-text-0" data-fill-palette-color="primary" id="text-0"><path d="M26.8-14.95L26.8-6.9Q26.8-4.35 27.43-3.45 28.05-2.55 29.5-2.55L29.5-2.55Q29.7-2 29.78-1.38 29.85-0.75 29.85 0.15L29.85 0.15Q28.75 0.05 27.13 0.03 25.5 0 23.9 0L23.9 0Q22.85 0 21.58 0.03 20.3 0.05 19.18 0.08 18.05 0.1 17.25 0.15L17.25 0.15Q17.25-0.65 17.3-1.33 17.35-2 17.55-2.55L17.55-2.55Q19.15-2.55 19.93-3.53 20.7-4.5 20.7-7.1L20.7-7.1 20.7-13.35Q20.7-16.7 19.58-17.93 18.45-19.15 16.55-19.15L16.55-19.15Q15.25-19.15 14.08-18.28 12.9-17.4 12.13-15.6 11.35-13.8 11.35-11L11.35-11 11.35-6.9Q11.35-4.4 12.05-3.48 12.75-2.55 14.45-2.55L14.45-2.55Q14.7-1.95 14.75-1.33 14.8-0.7 14.8 0.15L14.8 0.15Q14.1 0.1 12.98 0.08 11.85 0.05 10.63 0.03 9.4 0 8.3 0L8.3 0Q7.25 0 5.95 0.03 4.65 0.05 3.48 0.08 2.3 0.1 1.55 0.15L1.55 0.15Q1.55-0.7 1.63-1.4 1.7-2.1 1.85-2.55L1.85-2.55Q3.8-2.55 4.53-3.48 5.25-4.4 5.25-6.9L5.25-6.9 5.25-15.35 11.35-20.85Q11.35-20.25 11.25-19.48 11.15-18.7 10.9-17.85L10.9-17.85Q11.15-18.35 11.4-18.85 11.65-19.35 12.05-19.8L12.05-19.8Q13-20.95 14.85-22.03 16.7-23.1 19.15-23.1L19.15-23.1Q21.15-23.1 22.9-22.3 24.65-21.5 25.73-19.73 26.8-17.95 26.8-14.95L26.8-14.95ZM5.25-26.85L5.25-28.15Q5.25-29.35 5-30.1 4.75-30.85 3.95-31.25 3.15-31.65 1.5-31.7L1.5-31.7Q1.5-32.4 1.6-33.02 1.7-33.65 2-34.15L2-34.15Q3.35-34.15 4.98-34.4 6.6-34.65 8-35.05 9.4-35.45 10.05-35.85L10.05-35.85Q10.6-35.65 10.98-35.1 11.35-34.55 11.35-33.45L11.35-33.45 11.35-26.85 5.25-26.85ZM5.25-14.25L5.25-28.6 11.35-28.6 11.35-20.85 5.25-14.25ZM43.15-11.35L43.15-8.15Q43.15-6 43.6-4.83 44.05-3.65 45.12-3.18 46.2-2.7 47.9-2.55L47.9-2.55Q48.1-2.05 48.15-1.35 48.2-0.65 48.2 0.15L48.2 0.15Q47.4 0.1 46.22 0.08 45.05 0.05 43.72 0.03 42.4 0 41.05 0L41.05 0Q39 0 36.77 0.03 34.55 0.05 33.3 0.15L33.3 0.15Q33.3-0.75 33.37-1.4 33.45-2.05 33.6-2.55L33.6-2.55Q34.95-2.65 35.7-3.05 36.45-3.45 36.72-4.45 37-5.45 37-7.3L37-7.3 37-11.35 43.15-11.35ZM42.25-15.2L43.15-14.7 43.15-10.55 37-10.55 37-16.05 43.15-20.85Q43.15-19.4 42.85-18.1 42.55-16.8 42.25-15.2L42.25-15.2ZM43.15-11.6L42.05-14.95Q42.5-16.2 42.87-17.25 43.25-18.3 43.6-18.9L43.6-18.9Q44.7-20.65 46.25-21.8 47.8-22.95 49.75-22.95L49.75-22.95Q51.7-22.95 53.3-21.75L53.3-21.75Q53.15-20.85 53.05-19.65 52.95-18.45 52.9-17.25 52.85-16.05 52.9-15.05L52.9-15.05Q52.3-14.8 51.25-14.65 50.2-14.5 49.25-14.5L49.25-14.5Q49.2-16.65 48.6-17.4 48-18.15 47-18.15L47-18.15Q46.2-18.15 45.3-17.25 44.4-16.35 43.77-14.88 43.15-13.4 43.15-11.6L43.15-11.6ZM43.15-20.85L37-10.55 37-15.35Q37-16.7 36.77-17.5 36.55-18.3 35.77-18.7 35-19.1 33.35-19.2L33.35-19.2Q33.35-19.9 33.45-20.53 33.55-21.15 33.85-21.65L33.85-21.65Q36.1-21.75 38.37-22.25 40.65-22.75 41.85-23.35L41.85-23.35Q42.4-23.15 42.77-22.58 43.15-22 43.15-20.85L43.15-20.85ZM72.25 0.45L72.25 0.45Q67.45 0.45 63.77-1.78 60.1-4 58.02-7.98 55.95-11.95 55.95-17.1L55.95-17.1Q55.95-21.4 57.35-24.6 58.75-27.8 61.15-29.95 63.55-32.1 66.55-33.18 69.55-34.25 72.8-34.25L72.8-34.25Q75.8-34.25 78.5-33.6 81.2-32.95 83.9-31.65L83.9-31.65Q83.55-29.9 83.45-27.93 83.35-25.95 83.35-23.9L83.35-23.9Q82.7-23.6 81.77-23.48 80.85-23.35 79.95-23.35L79.95-23.35Q79.85-26.6 79-28.4 78.15-30.2 76.65-30.9 75.15-31.6 73.15-31.6L73.15-31.6Q70.35-31.6 68.37-30.5 66.4-29.4 65.17-27.55 63.95-25.7 63.37-23.35 62.8-21 62.8-18.45L62.8-18.45Q62.8-14.15 64.17-10.65 65.55-7.15 68.17-5.15 70.8-3.15 74.65-3.15L74.65-3.15Q76.8-3.15 79.1-3.85 81.4-4.55 83.45-5.8L83.45-5.8Q83.85-5.5 84.15-4.93 84.45-4.35 84.55-3.85L84.55-3.85Q81.95-1.8 79.05-0.68 76.15 0.45 72.25 0.45ZM88.09 0.15L88.09 0.15Q88.09-0.6 88.14-1.3 88.19-2 88.39-2.55L88.39-2.55Q90.39-2.6 91.09-3.5 91.79-4.4 91.79-6.9L91.79-6.9 91.79-28.35Q91.79-29.45 91.52-30.18 91.24-30.9 90.44-31.28 89.64-31.65 88.04-31.7L88.04-31.7Q88.04-32.4 88.14-33.02 88.24-33.65 88.54-34.15L88.54-34.15Q89.89-34.15 91.52-34.4 93.14-34.65 94.54-35.05 95.94-35.45 96.59-35.85L96.59-35.85Q97.14-35.65 97.52-35.1 97.89-34.55 97.89-33.45L97.89-33.45 97.89-6.9Q97.89-4.4 98.57-3.5 99.24-2.6 100.94-2.55L100.94-2.55Q101.14-2 101.19-1.25 101.24-0.5 101.24 0.15L101.24 0.15Q100.49 0.1 99.42 0.08 98.34 0.05 97.12 0.03 95.89 0 94.69 0L94.69 0Q93.49 0 92.24 0.03 90.99 0.05 89.92 0.08 88.84 0.1 88.09 0.15ZM116.54 0.45L116.54 0.45Q112.84 0.45 110.14-1 107.44-2.45 106.02-5.1 104.59-7.75 104.59-11.3L104.59-11.3Q104.59-15 106.17-17.7 107.74-20.4 110.49-21.88 113.24-23.35 116.69-23.35L116.69-23.35Q120.59-23.35 123.27-21.85 125.94-20.35 127.34-17.7 128.74-15.05 128.74-11.6L128.74-11.6Q128.74-8 127.22-5.3 125.69-2.6 122.97-1.07 120.24 0.45 116.54 0.45ZM117.14-2.4L117.14-2.4Q119.69-2.4 120.99-4.73 122.29-7.05 122.29-10.65L122.29-10.65Q122.29-13.8 121.44-16.03 120.59-18.25 119.19-19.4 117.79-20.55 116.14-20.55L116.14-20.55Q113.54-20.55 112.29-18.3 111.04-16.05 111.04-12.65L111.04-12.65Q111.04-9.55 111.79-7.23 112.54-4.9 113.89-3.65 115.24-2.4 117.14-2.4ZM141.94 0.25L141.94 0.25Q138.44 0.25 136.49-1.75 134.54-3.75 134.54-8.8L134.54-8.8 134.54-15.35Q134.54-17.35 134.04-18.23 133.54-19.1 131.34-19.2L131.34-19.2Q131.34-19.9 131.41-20.5 131.49-21.1 131.79-21.65L131.79-21.65Q133.99-21.75 136.09-22.25 138.19-22.75 139.39-23.35L139.39-23.35Q139.94-23.15 140.31-22.58 140.69-22 140.69-20.85L140.69-20.85 140.69-10Q140.69-6.65 141.49-5.08 142.29-3.5 144.19-3.5L144.19-3.5Q146.39-3.5 147.91-5.5 149.44-7.5 149.44-11.7L149.44-11.7 149.44-15.6Q149.44-17.6 148.81-18.48 148.19-19.35 145.79-19.45L145.79-19.45Q145.79-20.15 145.86-20.75 145.94-21.35 146.24-21.9L146.24-21.9Q148.74-22 150.94-22.4 153.14-22.8 154.29-23.35L154.29-23.35Q154.84-23.15 155.21-22.58 155.59-22 155.59-20.85L155.59-20.85 155.59-6.65 150.24-4.85Q149.99-4.05 149.51-3.38 149.04-2.7 148.49-2.15L148.49-2.15Q147.29-1 145.71-0.38 144.14 0.25 141.94 0.25ZM151.44 0.45L151.44 0.45Q150.74 0.15 150.36-0.4 149.99-0.95 149.99-2.45L149.99-2.45Q149.99-3.15 150.11-4.17 150.24-5.2 150.54-6.6L150.54-6.6 155.59-7.75Q155.59-6.35 155.79-5.53 155.99-4.7 156.64-4.35 157.29-4 158.59-4L158.59-4Q158.64-3.3 158.56-2.55 158.49-1.8 158.19-1.15L158.19-1.15Q156.59-1.1 154.74-0.68 152.89-0.25 151.44 0.45ZM175.24-23.35L175.24-23.35Q176.49-23.35 177.49-23.15 178.49-22.95 179.69-22.6L179.69-22.6 179.69-18.25Q178.74-19.35 177.69-20 176.64-20.65 175.09-20.65L175.09-20.65Q174.09-20.65 172.96-20.25 171.84-19.85 170.81-18.85 169.79-17.85 169.11-16 168.44-14.15 168.44-11.25L168.44-11.25Q168.44-8.55 169.19-6.8 169.94-5.05 171.11-4.15 172.29-3.25 173.49-3.25L173.49-3.25Q174.89-3.25 176.14-4.13 177.39-5 178.21-6.95 179.04-8.9 179.04-12.15L179.04-12.15 180.84-6.95Q180.09-5.15 179.46-4.17 178.84-3.2 178.39-2.7L178.39-2.7Q177.89-2.05 176.91-1.33 175.94-0.6 174.61-0.08 173.29 0.45 171.69 0.45L171.69 0.45Q168.79 0.45 166.61-0.68 164.44-1.8 163.24-4.17 162.04-6.55 162.04-10.35L162.04-10.35Q162.04-14.05 163.69-16.98 165.34-19.9 168.29-21.63 171.24-23.35 175.24-23.35ZM180.34-6.75L185.19-7.75Q185.19-6.35 185.39-5.53 185.59-4.7 186.24-4.35 186.89-4 188.19-4L188.19-4Q188.24-3.3 188.16-2.55 188.09-1.8 187.79-1.15L187.79-1.15Q186.19-1.1 184.34-0.68 182.49-0.25 181.04 0.45L181.04 0.45Q180.34 0.15 179.96-0.4 179.59-0.95 179.59-2.45L179.59-2.45Q179.59-3.45 179.79-4.35 179.99-5.25 180.34-6.75L180.34-6.75ZM179.04-28.6L185.19-28.6 185.19-6.45 179.04-6.45 179.04-28.6ZM183.89-35.85L183.89-35.85Q184.44-35.65 184.81-35.1 185.19-34.55 185.19-33.45L185.19-33.45 185.19-26.85 179.04-26.85 179.04-28.15Q179.04-29.35 178.81-30.1 178.59-30.85 177.79-31.25 176.99-31.65 175.34-31.7L175.34-31.7Q175.34-32.4 175.44-33.02 175.54-33.65 175.84-34.15L175.84-34.15Q177.14-34.15 178.76-34.4 180.39-34.65 181.79-35.05 183.19-35.45 183.89-35.85Z" fill="#ffffff" data-fill-palette-color="primary"></path></g></svg></g></svg></g></svg></g></svg></g><g><svg viewBox="0 0 256.97284559213665 157.27293581491003" height="157.27293581491003" width="256.97284559213665"><g><svg xmlns="http://www.w3.org/2000/svg" xmlns:xlink="http://www.w3.org/1999/xlink" version="1.1" x="0" y="0" viewBox="5.434 22.775 89.755 54.931999999999995" enable-background="new 0 0 100 100" xml:space="preserve" height="157.27293581491003" width="256.97284559213665" class="icon-icon-0" data-fill-palette-color="accent" id="icon-0"><path d="M74.689 36.705C74.079 36.705 73.466 36.735 72.841 36.795 69.861 28.457 61.909 22.775 52.923 22.775 47.066 22.775 41.535 25.175 37.544 29.405A14.4 14.4 0 0 0 33.66 28.869C27.925 28.869 22.734 32.283 20.417 37.47 11.674 39.916 5.434 48.048 5.434 57.205 5.434 68.51 14.631 77.707 25.935 77.707 30.335 77.707 34.603 76.283 38.124 73.669A20.45 20.45 0 0 0 50.312 77.707C54.71 77.707 58.978 76.283 62.501 73.669A20.45 20.45 0 0 0 74.689 77.707C85.993 77.707 95.189 68.51 95.189 57.205S85.993 36.705 74.689 36.705M51.836 66.564C48.174 66.564 44.894 64.96 42.632 62.425A14.3 14.3 0 0 1 37.342 63.437C29.423 63.437 23.002 57.019 23.002 49.101 23.002 48.758 23.02 48.418 23.043 48.084 24.243 55.722 30.852 61.562 38.826 61.562A16 16 0 0 0 44.694 60.446C44.845 60.673 45.014 60.887 45.178 61.104 47.435 64.04 50.974 65.94 54.962 65.94 55.25 65.94 55.532 65.915 55.816 65.895A12.3 12.3 0 0 1 51.836 66.564M84.724 73.389C88.57 70.077 91.015 65.182 91.015 59.705 91.015 49.728 82.927 41.64 72.951 41.64 71.863 41.64 70.806 41.753 69.773 41.937 67.652 33.938 60.366 28.04 51.699 28.04 45.9 28.04 40.72 30.679 37.29 34.818A12.3 12.3 0 0 0 32.888 33.989C27.589 33.989 23.092 37.37 21.398 42.088 14.1 43.715 8.477 49.755 7.459 57.264 7.732 48.702 13.81 41.617 21.893 39.813 23.626 34.985 28.235 31.522 33.662 31.522 35.254 31.522 36.767 31.831 38.169 32.372 41.682 28.13 46.986 25.428 52.925 25.428 61.802 25.428 69.266 31.467 71.438 39.66A18.5 18.5 0 0 1 74.691 39.358C84.91 39.358 93.191 47.641 93.191 57.859 93.189 64.377 89.814 70.092 84.724 73.389" fill="#ffee31" data-fill-palette-color="accent"></path></svg></g></svg></g></svg></g><defs></defs></svg><rect width="395.52" height="92.75333590941301" fill="none" stroke="none" visibility="hidden"></rect></g></svg></g></svg>