<svg xmlns="http://www.w3.org/2000/svg" version="1.1" xmlns:xlink="http://www.w3.org/1999/xlink" xmlns:svgjs="http://svgjs.dev/svgjs" width="2000" height="1500" viewBox="0 0 2000 1500"><rect width="2000" height="1500" fill="#1c212d"></rect><g transform="matrix(0.75,0,0,0.75,249.090909090909,579.1072708764069)"><svg viewBox="0 0 396 92" data-background-color="#1c212d" preserveAspectRatio="xMidYMid meet" height="464" width="2000" xmlns="http://www.w3.org/2000/svg" xmlns:xlink="http://www.w3.org/1999/xlink"><g id="tight-bounds" transform="matrix(1,0,0,1,0.2400000000000091,1.928588910497325)"><svg viewBox="0 0 395.52 89.8314128820249" height="89.8314128820249" width="395.52"><g><svg viewBox="0 0 476.47259786402265 108.21755326075557" height="89.8314128820249" width="395.52"><g transform="matrix(1,0,0,1,80.95259786402264,27.65437416314571)"><svg viewBox="0 0 395.52 52.90880493446414" height="52.90880493446414" width="395.52"><g id="textblocktransform"><svg viewBox="0 0 395.52 52.90880493446414" height="52.90880493446414" width="395.52" id="textblock"><g><svg viewBox="0 0 395.52 52.90880493446414" height="52.90880493446414" width="395.52"><g transform="matrix(1,0,0,1,0,0)"><svg width="395.52" viewBox="2.4 -34.25 259.38 34.7" height="52.90880493446414" data-palette-color="#ffee31"><g class="wordmark-text-0" data-fill-palette-color="primary" id="text-0"><path d="M22.25 0.15L22.25 0.15Q22.25-0.6 22.33-1.33 22.4-2.05 22.6-2.55L22.6-2.55Q23.95-2.65 24.68-3.05 25.4-3.45 25.68-4.45 25.95-5.45 25.95-7.3L25.95-7.3 25.95-26.5Q25.95-28.4 25.68-29.35 25.4-30.3 24.68-30.73 23.95-31.15 22.55-31.25L22.55-31.25Q22.4-31.75 22.33-32.48 22.25-33.2 22.25-33.95L22.25-33.95Q23.15-33.9 24.35-33.88 25.55-33.85 26.85-33.83 28.15-33.8 29.25-33.8L29.25-33.8Q30.35-33.8 31.55-33.83 32.75-33.85 33.9-33.88 35.05-33.9 36.05-33.95L36.05-33.95Q36.05-33.2 36-32.52 35.95-31.85 35.75-31.25L35.75-31.25Q34.45-31.15 33.7-30.75 32.95-30.35 32.65-29.38 32.35-28.4 32.35-26.5L32.35-26.5 32.35-7.3Q32.35-5.45 32.65-4.45 32.95-3.45 33.7-3.05 34.45-2.65 35.75-2.55L35.75-2.55Q35.95-2.1 36-1.38 36.05-0.65 36.05 0.15L36.05 0.15Q34.7 0.05 32.95 0.03 31.2 0 29.4 0L29.4 0Q27.6 0 25.65 0.03 23.7 0.05 22.25 0.15ZM2.4 0.15L2.4 0.15Q2.4-0.6 2.48-1.33 2.55-2.05 2.7-2.55L2.7-2.55Q4.05-2.65 4.8-3.05 5.55-3.45 5.83-4.45 6.1-5.45 6.1-7.3L6.1-7.3 6.1-26.5Q6.1-28.4 5.83-29.35 5.55-30.3 4.8-30.73 4.05-31.15 2.7-31.25L2.7-31.25Q2.55-31.75 2.48-32.48 2.4-33.2 2.4-33.95L2.4-33.95Q3.3-33.9 4.5-33.88 5.7-33.85 6.98-33.83 8.25-33.8 9.35-33.8L9.35-33.8Q10.5-33.8 11.7-33.83 12.9-33.85 14.05-33.88 15.2-33.9 16.2-33.95L16.2-33.95Q16.2-33.2 16.15-32.52 16.1-31.85 15.85-31.25L15.85-31.25Q14.55-31.15 13.8-30.75 13.05-30.35 12.78-29.38 12.5-28.4 12.5-26.5L12.5-26.5 12.5-7.3Q12.5-5.45 12.78-4.45 13.05-3.45 13.8-3.05 14.55-2.65 15.9-2.55L15.9-2.55Q16.05-2.1 16.13-1.38 16.2-0.65 16.2 0.15L16.2 0.15Q14.8 0.05 13.08 0.03 11.35 0 9.55 0L9.55 0Q7.7 0 5.78 0.03 3.85 0.05 2.4 0.15ZM12.25-15.65L12.25-15.65 12.25-18.75 26.2-18.75 26.2-16Q24.85-16 23-16 21.15-16 19.18-15.98 17.2-15.95 15.4-15.85 13.6-15.75 12.25-15.65ZM62.9 0.45L62.9 0.45Q62.05-1.05 61.45-2.23 60.85-3.4 60.35-4.48 59.85-5.55 59.25-6.75L59.25-6.75Q58.4-8.6 57.6-9.95 56.8-11.3 55.8-12.55 54.8-13.8 53.25-15.2L53.25-15.2 55-14.65Q53.65-14.6 52.6-14.6 51.55-14.6 50.4-14.65L50.4-14.65 50.55-17.55Q51.3-17.4 51.82-17.35 52.35-17.3 52.9-17.3L52.9-17.3Q55.25-17.3 57.15-18.07 59.05-18.85 60.2-20.45 61.35-22.05 61.35-24.5L61.35-24.5Q61.35-27.55 59.65-29.4 57.95-31.25 54.1-31.25L54.1-31.25Q53.15-31.25 52.35-31.13 51.55-31 50.65-30.75L50.65-30.75 50.95-31.8 50.95-7.5Q50.95-5.5 51.22-4.45 51.5-3.4 52.17-3.03 52.85-2.65 53.95-2.55L53.95-2.55Q54.15-2.1 54.2-1.35 54.25-0.6 54.25 0.15L54.25 0.15Q53.25 0.05 51.95 0.03 50.65 0 49.42 0 48.2 0 47.4 0L47.4 0Q45.85 0 44 0.03 42.15 0.05 40.85 0.15L40.85 0.15Q40.85-0.65 40.9-1.33 40.95-2 41.15-2.55L41.15-2.55Q42.5-2.65 43.22-3.05 43.95-3.45 44.25-4.45 44.55-5.45 44.55-7.3L44.55-7.3 44.55-26.55Q44.55-28.45 44.25-29.43 43.95-30.4 43.22-30.8 42.5-31.2 41.1-31.25L41.1-31.25Q40.95-31.85 40.9-32.6 40.85-33.35 40.85-33.95L40.85-33.95Q41.8-33.9 43.72-33.85 45.65-33.8 47.65-33.8L47.65-33.8Q49.55-33.8 51.87-33.88 54.2-33.95 56.65-33.95L56.65-33.95Q60.65-33.95 63.15-32.8 65.65-31.65 66.85-29.65 68.05-27.65 68.05-25.25L68.05-25.25Q68.05-22.6 66.92-20.58 65.8-18.55 63.77-17.28 61.75-16 59-15.5L59-15.5 59.55-16.1Q61-15 61.95-13.9 62.9-12.8 63.9-11.23 64.9-9.65 66.3-7.05L66.3-7.05Q67.25-5.5 67.97-4.58 68.7-3.65 69.65-3.23 70.6-2.8 72.15-2.7L72.15-2.7Q72.15-1.95 72.07-1.3 72-0.65 71.85 0L71.85 0Q69.3 0 66.97 0.08 64.65 0.15 62.9 0.45ZM91.25 0.45L91.25 0.45Q86.45 0.45 82.77-1.78 79.1-4 77.02-7.98 74.95-11.95 74.95-17.1L74.95-17.1Q74.95-21.4 76.35-24.6 77.75-27.8 80.15-29.95 82.55-32.1 85.55-33.18 88.55-34.25 91.8-34.25L91.8-34.25Q94.8-34.25 97.5-33.6 100.2-32.95 102.9-31.65L102.9-31.65Q102.55-29.9 102.45-27.93 102.35-25.95 102.35-23.9L102.35-23.9Q101.7-23.6 100.77-23.48 99.85-23.35 98.95-23.35L98.95-23.35Q98.85-26.6 98-28.4 97.15-30.2 95.65-30.9 94.15-31.6 92.15-31.6L92.15-31.6Q89.35-31.6 87.37-30.5 85.4-29.4 84.17-27.55 82.95-25.7 82.37-23.35 81.8-21 81.8-18.45L81.8-18.45Q81.8-14.15 83.17-10.65 84.55-7.15 87.17-5.15 89.8-3.15 93.65-3.15L93.65-3.15Q95.8-3.15 98.1-3.85 100.4-4.55 102.45-5.8L102.45-5.8Q102.85-5.5 103.15-4.93 103.45-4.35 103.55-3.85L103.55-3.85Q100.95-1.8 98.05-0.68 95.15 0.45 91.25 0.45ZM119.34 0.45L119.34 0.45Q115.64 0.45 112.94-1 110.24-2.45 108.82-5.1 107.39-7.75 107.39-11.3L107.39-11.3Q107.39-15 108.97-17.7 110.54-20.4 113.29-21.88 116.04-23.35 119.49-23.35L119.49-23.35Q123.39-23.35 126.07-21.85 128.74-20.35 130.14-17.7 131.54-15.05 131.54-11.6L131.54-11.6Q131.54-8 130.02-5.3 128.49-2.6 125.77-1.07 123.04 0.45 119.34 0.45ZM119.94-2.4L119.94-2.4Q122.49-2.4 123.79-4.73 125.09-7.05 125.09-10.65L125.09-10.65Q125.09-13.8 124.24-16.03 123.39-18.25 121.99-19.4 120.59-20.55 118.94-20.55L118.94-20.55Q116.34-20.55 115.09-18.3 113.84-16.05 113.84-12.65L113.84-12.65Q113.84-9.55 114.59-7.23 115.34-4.9 116.69-3.65 118.04-2.4 119.94-2.4ZM144.94-20.85L138.79-10.55 138.79-15.35Q138.79-16.7 138.57-17.5 138.34-18.3 137.57-18.7 136.79-19.1 135.14-19.2L135.14-19.2Q135.14-19.9 135.24-20.53 135.34-21.15 135.64-21.65L135.64-21.65Q137.89-21.75 140.17-22.25 142.44-22.75 143.64-23.35L143.64-23.35Q144.19-23.15 144.57-22.58 144.94-22 144.94-20.85L144.94-20.85ZM160.34-14.95L160.34-6.9Q160.34-4.35 160.99-3.45 161.64-2.55 163.04-2.55L163.04-2.55Q163.29-2 163.34-1.38 163.39-0.75 163.39 0.15L163.39 0.15Q162.29 0.05 160.69 0.03 159.09 0 157.49 0L157.49 0Q156.44 0 155.17 0.03 153.89 0.05 152.74 0.08 151.59 0.1 150.79 0.15L150.79 0.15Q150.79-0.65 150.87-1.33 150.94-2 151.14-2.55L151.14-2.55Q152.69-2.55 153.47-3.53 154.24-4.5 154.24-7.1L154.24-7.1 154.24-13.35Q154.24-16.7 153.12-17.93 151.99-19.15 150.09-19.15L150.09-19.15Q148.84-19.15 147.64-18.28 146.44-17.4 145.69-15.6 144.94-13.8 144.94-11L144.94-11 144.94-6.9Q144.94-4.4 145.64-3.48 146.34-2.55 148.04-2.55L148.04-2.55Q148.24-1.95 148.29-1.33 148.34-0.7 148.34 0.15L148.34 0.15Q147.64 0.1 146.54 0.08 145.44 0.05 144.22 0.03 142.99 0 141.84 0L141.84 0Q140.79 0 139.49 0.03 138.19 0.05 137.02 0.08 135.84 0.1 135.09 0.15L135.09 0.15Q135.09-0.7 135.17-1.4 135.24-2.1 135.44-2.55L135.44-2.55Q137.39-2.55 138.09-3.48 138.79-4.4 138.79-6.9L138.79-6.9 138.79-15.35 144.94-20.85Q144.94-20.25 144.84-19.48 144.74-18.7 144.49-17.85L144.49-17.85Q144.74-18.35 144.97-18.85 145.19-19.35 145.64-19.8L145.64-19.8Q146.59-20.95 148.42-22.03 150.24-23.1 152.74-23.1L152.74-23.1Q154.74-23.1 156.49-22.3 158.24-21.5 159.29-19.73 160.34-17.95 160.34-14.95L160.34-14.95ZM176.69-20.85L170.54-10.55 170.54-15.35Q170.54-16.7 170.31-17.5 170.09-18.3 169.31-18.7 168.54-19.1 166.89-19.2L166.89-19.2Q166.89-19.9 166.99-20.53 167.09-21.15 167.39-21.65L167.39-21.65Q169.64-21.75 171.91-22.25 174.19-22.75 175.39-23.35L175.39-23.35Q175.94-23.15 176.31-22.58 176.69-22 176.69-20.85L176.69-20.85ZM192.09-14.95L192.09-6.9Q192.09-4.35 192.74-3.45 193.39-2.55 194.79-2.55L194.79-2.55Q195.04-2 195.09-1.38 195.14-0.75 195.14 0.15L195.14 0.15Q194.04 0.05 192.44 0.03 190.84 0 189.24 0L189.24 0Q188.19 0 186.91 0.03 185.64 0.05 184.49 0.08 183.34 0.1 182.54 0.15L182.54 0.15Q182.54-0.65 182.61-1.33 182.69-2 182.89-2.55L182.89-2.55Q184.44-2.55 185.21-3.53 185.99-4.5 185.99-7.1L185.99-7.1 185.99-13.35Q185.99-16.7 184.86-17.93 183.74-19.15 181.84-19.15L181.84-19.15Q180.59-19.15 179.39-18.28 178.19-17.4 177.44-15.6 176.69-13.8 176.69-11L176.69-11 176.69-6.9Q176.69-4.4 177.39-3.48 178.09-2.55 179.79-2.55L179.79-2.55Q179.99-1.95 180.04-1.33 180.09-0.7 180.09 0.15L180.09 0.15Q179.39 0.1 178.29 0.08 177.19 0.05 175.96 0.03 174.74 0 173.59 0L173.59 0Q172.54 0 171.24 0.03 169.94 0.05 168.76 0.08 167.59 0.1 166.84 0.15L166.84 0.15Q166.84-0.7 166.91-1.4 166.99-2.1 167.19-2.55L167.19-2.55Q169.14-2.55 169.84-3.48 170.54-4.4 170.54-6.9L170.54-6.9 170.54-15.35 176.69-20.85Q176.69-20.25 176.59-19.48 176.49-18.7 176.24-17.85L176.24-17.85Q176.49-18.35 176.71-18.85 176.94-19.35 177.39-19.8L177.39-19.8Q178.34-20.95 180.16-22.03 181.99-23.1 184.49-23.1L184.49-23.1Q186.49-23.1 188.24-22.3 189.99-21.5 191.04-19.73 192.09-17.95 192.09-14.95L192.09-14.95ZM210.14 0.45L210.14 0.45Q206.19 0.45 203.66-1.13 201.14-2.7 199.91-5.4 198.69-8.1 198.69-11.35L198.69-11.35Q198.69-14.8 200.04-17.5 201.39-20.2 203.89-21.78 206.39-23.35 209.79-23.35L209.79-23.35Q213.24-23.35 215.39-21.98 217.54-20.6 218.61-18.2 219.69-15.8 219.84-12.8L219.84-12.8Q219.54-11.55 218.79-10.7L218.79-10.7Q217.69-10.7 215.91-10.7 214.14-10.7 212.04-10.68 209.94-10.65 207.76-10.55 205.59-10.45 203.64-10.35L203.64-10.35 203.64-13.35 213.64-13.35Q213.64-16.7 212.59-18.63 211.54-20.55 209.54-20.55L209.54-20.55Q208.34-20.55 207.31-19.78 206.29-19 205.66-17.28 205.04-15.55 205.04-12.6L205.04-12.6Q205.04-10.05 205.66-7.85 206.29-5.65 207.84-4.3 209.39-2.95 212.14-2.95L212.14-2.95Q213.84-2.95 215.49-3.63 217.14-4.3 218.34-5.5L218.34-5.5Q218.79-5.25 219.19-4.6 219.59-3.95 219.59-3.35L219.59-3.35Q217.79-1.35 215.46-0.45 213.14 0.45 210.14 0.45ZM243.18-3.3L243.18-3.3Q241.88-1.5 239.78-0.53 237.68 0.45 234.83 0.45L234.83 0.45Q231.78 0.45 229.21-0.85 226.63-2.15 225.08-4.78 223.53-7.4 223.53-11.35L223.53-11.35Q223.53-14.35 224.78-17.1 226.03-19.85 228.51-21.6 230.98-23.35 234.63-23.35L234.63-23.35Q237.18-23.35 239.18-22.83 241.18-22.3 242.68-21.2L242.68-21.2Q242.43-19.75 242.33-18.32 242.23-16.9 242.23-15.2L242.23-15.2Q241.58-14.9 240.68-14.78 239.78-14.65 238.98-14.65L238.98-14.65Q238.78-17.55 237.58-19.07 236.38-20.6 234.43-20.6L234.43-20.6Q232.23-20.6 230.96-18.32 229.68-16.05 229.68-12.1L229.68-12.1Q229.68-9.8 230.43-7.7 231.18-5.6 232.73-4.28 234.28-2.95 236.63-2.95L236.63-2.95Q238.23-2.95 239.58-3.58 240.93-4.2 241.98-5.3L241.98-5.3Q242.43-5 242.76-4.48 243.08-3.95 243.18-3.3ZM255.58 0.45L255.58 0.45Q252.28 0.45 250.66-1.25 249.03-2.95 249.03-6.85L249.03-6.85 249.03-19Q248.28-19.3 247.46-19.45 246.63-19.6 245.38-19.65L245.38-19.65Q245.38-20.45 245.51-21.08 245.63-21.7 245.93-22.4L245.93-22.4 249.03-22.4 249.03-28.75Q250.43-29 251.81-29.63 253.18-30.25 254.08-31L254.08-31Q254.73-30.75 254.93-30.25 255.13-29.75 255.13-28.1L255.13-28.1 255.13-22.4 261.43-22.4Q261.43-21.65 261.33-20.95 261.23-20.25 260.98-19.6L260.98-19.6Q259.23-19.6 257.81-19.4 256.38-19.2 255.13-18.9L255.13-18.9 255.13-7.75Q255.13-5.9 255.46-4.8 255.78-3.7 256.38-3.25 256.98-2.8 257.88-2.8L257.88-2.8Q258.78-2.8 259.56-3.05 260.33-3.3 261.03-3.75L261.03-3.75Q261.73-2.9 261.78-1.6L261.78-1.6Q260.88-0.75 259.11-0.15 257.33 0.45 255.58 0.45Z" fill="#ffee31" data-fill-palette-color="primary"></path></g></svg></g></svg></g></svg></g></svg></g><g><svg viewBox="0 0 68.46209883031408 108.21755326075557" height="108.21755326075557" width="68.46209883031408"><g><svg xmlns="http://www.w3.org/2000/svg" xmlns:xlink="http://www.w3.org/1999/xlink" version="1.1" x="0" y="0" viewBox="22.162 6.498999984194633 55.67208907114979 88.00047569571484" enable-background="new 0 0 100 100" xml:space="preserve" height="108.21755326075557" width="68.46209883031408" class="icon-icon-0" data-fill-palette-color="accent" id="icon-0"><g fill="#ffee31" data-fill-palette-color="accent"><g fill="#ffee31" data-fill-palette-color="accent"><path fill-rule="evenodd" clip-rule="evenodd" d="M61.449 22.663C65.912 22.663 69.53 19.045 69.53 14.581S65.912 6.5 61.449 6.5A8.081 8.081 0 1 0 61.449 22.663M61.449 8.745A5.836 5.836 0 1 1 61.449 20.418 5.837 5.837 0 1 1 61.449 8.745M77.648 37.335C76.448 29.79 69.652 24.01 61.449 24.01 56.989 24.01 52.955 25.727 50 28.499 47.045 25.727 43.01 24.01 38.55 24.01 30.332 24.01 23.529 29.81 22.345 37.375 22.233 37.584 22.162 37.903 22.162 38.377V54.99A4.938 4.938 0 0 0 29.795 59.125V89.561A4.938 4.938 0 0 0 38.55 92.694 4.938 4.938 0 0 0 47.305 89.561V59.125C47.522 59.267 47.753 59.388 47.992 59.495 48.078 59.533 48.168 59.562 48.256 59.597 48.447 59.669 48.643 59.731 48.844 59.78 48.933 59.801 49.021 59.823 49.112 59.84 49.401 59.894 49.695 59.93 49.999 59.93A4.8 4.8 0 0 0 51.152 59.78C51.357 59.73 51.557 59.669 51.753 59.593 51.836 59.562 51.92 59.534 52 59.498A5 5 0 0 0 52.694 59.126V89.562A4.938 4.938 0 0 0 61.448 92.695 4.938 4.938 0 0 0 70.202 89.562V59.125A4.9 4.9 0 0 0 72.896 59.929 4.94 4.94 0 0 0 77.834 54.984V38.351C77.837 37.868 77.764 37.544 77.648 37.335M45.244 37.375C45.132 37.584 45.061 37.903 45.061 38.377V89.561A2.694 2.694 0 0 1 39.673 89.561V57.459A1.122 1.122 0 1 0 37.428 57.459V89.562A2.694 2.694 0 0 1 32.04 89.562V39.5A1.123 1.123 0 0 0 29.794 39.5V54.99A2.694 2.694 0 0 1 24.406 54.99V39.725C24.406 32.286 30.791 26.255 38.549 26.255 42.399 26.255 45.908 27.743 48.47 30.149 46.812 32.214 45.666 34.678 45.244 37.375M52.694 54.983A2.695 2.695 0 1 1 47.306 54.983V39.725C47.306 36.785 48.315 34.073 50 31.858 51.686 34.073 52.694 36.785 52.694 39.725zM75.592 54.983A2.695 2.695 0 0 1 72.899 57.68 2.695 2.695 0 0 1 70.205 54.983V43.092A1.123 1.123 0 0 0 67.96 43.092V89.562A2.693 2.693 0 0 1 62.573 89.562V57.459A1.122 1.122 0 1 0 60.328 57.459V89.562A2.693 2.693 0 0 1 54.941 89.562V38.352C54.941 37.869 54.869 37.545 54.753 37.336 54.326 34.655 53.183 32.204 51.53 30.149 54.092 27.743 57.601 26.255 61.451 26.255 69.209 26.255 75.594 32.286 75.594 39.725V54.983zM38.551 22.663A8.082 8.082 0 1 0 38.551 6.499 8.082 8.082 0 0 0 38.55 22.663M38.551 8.745A5.836 5.836 0 1 1 38.552 20.418 5.836 5.836 0 0 1 38.551 8.745" fill="#ffee31" data-fill-palette-color="accent"></path></g></g></svg></g></svg></g></svg></g><defs></defs></svg><rect width="395.52" height="89.8314128820249" fill="none" stroke="none" visibility="hidden"></rect></g></svg></g></svg>