<svg width="155" height="155" viewBox="0 0 155 155" fill="none" xmlns="http://www.w3.org/2000/svg">
<path d="M53.8157 53.5687C56.5132 57.0306 57.8499 61.3604 57.5734 65.7404C63.9195 65.1818 68.7548 70.415 68.3622 76.266C66.4084 74.3875 63.9602 73.104 61.3038 72.5654C58.6475 72.0269 55.8927 72.2555 53.3615 73.2246C50.8303 74.1938 48.6273 75.8634 47.0098 78.0382C45.3924 80.2131 44.4274 82.8035 44.2277 85.5065H16.3852C14.5668 85.1971 12.8309 84.519 11.2843 83.5138C9.73768 82.5087 8.41304 81.1978 7.39185 79.6617C6.11265 77.7378 5.34781 75.5182 5.17033 73.2147C4.99284 70.9112 5.40864 68.6006 6.37803 66.5035C7.34742 64.4064 8.83807 62.5927 10.7077 61.2355C12.5774 59.8782 14.7636 59.0228 17.0579 58.7507C18.8895 58.5331 20.7462 58.6925 22.5139 59.2191C23.4968 56.0945 25.3154 53.2981 27.7729 51.1326C30.2305 48.967 33.2335 47.5147 36.457 46.9329C39.6804 46.351 43.0016 46.6617 46.0612 47.8313C49.1209 49.0009 51.8024 50.9849 53.8157 53.5687Z" stroke="#1C212D" stroke-width="0.769171" stroke-linecap="round" stroke-linejoin="round"/>
<path d="M138.21 58.4453C139.179 56.5711 139.44 54.4099 138.944 52.3589C138.448 50.3079 137.228 48.5048 135.509 47.2812C133.789 46.0575 131.686 45.4954 129.586 45.6982C127.486 45.9011 125.529 46.8551 124.076 48.3851C122.875 46.9109 121.356 45.7282 119.632 44.9262C117.909 44.1242 116.026 43.7238 114.125 43.7551C112.224 43.7864 110.355 44.2486 108.659 45.107C106.962 45.9653 105.483 47.1974 104.332 48.7104C102.792 50.735 101.903 53.1789 101.782 55.7193C101.781 55.7828 101.79 55.8157 101.779 55.8279C101.743 55.8639 101.52 55.7154 100.258 55.6427C95.4838 55.4131 91.2753 58.3267 89.6313 62.5613C90.8264 62.3773 92.0338 62.285 93.2429 62.285C103.744 62.285 111.917 68.7994 115.301 77.3114H139.506C140.84 77.363 142.169 77.1332 143.409 76.6371C144.648 76.1409 145.769 75.3895 146.698 74.4316C147.628 73.4738 148.345 72.331 148.804 71.0776C149.263 69.8242 149.453 68.4882 149.361 67.1566C149.27 65.8249 148.899 64.5275 148.273 63.3486C147.647 62.1698 146.78 61.1359 145.728 60.3142C144.676 59.4925 143.463 58.9014 142.168 58.5795C140.872 58.2575 139.524 58.2118 138.21 58.4453Z" stroke="#1C212D" stroke-width="0.769171" stroke-linecap="round" stroke-linejoin="round"/>
<path fill-rule="evenodd" clip-rule="evenodd" d="M23.502 74.8316L47.175 61.0925L54.0683 72.9765C52.1231 73.6066 50.3359 74.6471 48.8276 76.0277C47.3193 77.4083 46.125 79.0967 45.3257 80.9788C44.5264 82.8608 44.1405 84.8926 44.1943 86.9366C44.2481 88.9807 44.7403 90.9893 45.6375 92.8267C42.3325 92.1514 38.9019 92.4631 35.7727 93.7229C32.6435 94.9828 29.9539 97.1351 28.0389 99.9121L20.2922 86.5526L23.502 74.8316Z" fill="#1C212D"/>
<path d="M27.8008 82.2394L21.1058 87.9464L20.2922 86.5528L27.8008 82.2394Z" fill="#FFEE31"/>
<path d="M27.8008 82.2394L21.1058 87.9464L20.2922 86.5528L27.8008 82.2394Z" stroke="#1C212D" stroke-width="0.769171" stroke-linecap="round" stroke-linejoin="round"/>
<path d="M23.502 74.8318L27.8008 82.2393L20.2922 86.5527" stroke="#1C212D" stroke-width="0.769171" stroke-linecap="round" stroke-linejoin="round"/>
<path d="M23.502 74.8316L47.175 61.0925L54.0683 72.9765C52.1231 73.6066 50.3359 74.6471 48.8276 76.0277C47.3193 77.4083 46.125 79.0967 45.3257 80.9788C44.5264 82.8608 44.1405 84.8926 44.1943 86.9366C44.2481 88.9807 44.7403 90.9893 45.6375 92.8267C42.3325 92.1514 38.9019 92.4631 35.7727 93.7229C32.6435 94.9828 29.9539 97.1351 28.0389 99.9121L20.2922 86.5526L23.502 74.8316Z" stroke="#1C212D" stroke-width="0.769171" stroke-linecap="round" stroke-linejoin="round"/>
<path fill-rule="evenodd" clip-rule="evenodd" d="M132.768 105.85C133.324 105.816 133.866 105.664 134.359 105.404C134.852 105.144 135.284 104.783 135.627 104.344C135.946 103.935 136.182 103.467 136.321 102.967L143.087 78.7098L110.493 69.718C117.032 76.7153 119.243 87.5033 114.331 96.9543C117.96 95.8889 121.856 96.2091 125.262 97.8528C128.669 99.4965 131.344 102.347 132.768 105.85Z" fill="#1C212D"/>
<path fill-rule="evenodd" clip-rule="evenodd" d="M110.493 69.7178L143.087 78.7096L144.1 75.1263C144.312 74.3728 144.295 73.5732 144.05 72.8298C143.805 72.0864 143.344 71.4329 142.725 70.953C142.315 70.6338 141.846 70.3987 141.345 70.2611L133.212 68.0241C132.711 67.8864 132.187 67.8489 131.671 67.9138C131.156 67.9787 130.658 68.1446 130.206 68.4022C124.587 71.5821 124.379 71.7459 124.232 71.7023C124.215 71.6969 124.2 71.69 124.178 71.6839L107.63 67.1157C108.653 67.9036 109.611 68.7739 110.493 69.7178Z" fill="#FFEE31"/>
<path d="M143.087 78.7097L142.985 79.0786C143.083 79.1055 143.187 79.0927 143.275 79.0431C143.363 78.9935 143.428 78.911 143.455 78.8138L143.087 78.7097ZM110.493 69.7179L110.213 69.9789C110.261 70.0306 110.323 70.0679 110.391 70.0868L110.493 69.7179ZM144.1 75.1265L144.469 75.2306L144.469 75.2298L144.1 75.1265ZM141.345 70.2613L141.244 70.6302H141.244L141.345 70.2613ZM133.212 68.0243L133.314 67.6554H133.313L133.212 68.0243ZM130.206 68.4023L130.394 68.7352H130.396L130.206 68.4023ZM124.178 71.684L124.281 71.3151H124.28L124.178 71.684ZM107.63 67.1158L107.731 66.7469C107.646 66.7234 107.555 66.7303 107.474 66.7664C107.393 66.8026 107.327 66.8657 107.288 66.9451C107.248 67.0244 107.237 67.115 107.257 67.2014C107.277 67.2879 107.326 67.3647 107.396 67.4189L107.63 67.1158ZM143.189 78.3408L110.594 69.349L110.391 70.0868L142.985 79.0786L143.189 78.3408ZM143.732 75.0224L142.719 78.6056L143.455 78.8138L144.469 75.2306L143.732 75.0224ZM143.837 73.6333C143.894 74.099 143.858 74.5714 143.732 75.0231L144.469 75.2298C144.623 74.6806 144.666 74.1067 144.597 73.5407L143.837 73.6333ZM143.401 72.3093C143.632 72.7176 143.781 73.1675 143.837 73.6333L144.597 73.5415C144.528 72.9755 144.348 72.4288 144.067 71.9328L143.401 72.3101V72.3093ZM142.49 71.2547C142.861 71.5432 143.17 71.9014 143.401 72.3101L144.067 71.9328C143.786 71.4367 143.41 71.001 142.96 70.6508L142.49 71.2555V71.2547ZM141.244 70.6302C141.697 70.7542 142.12 70.9669 142.49 71.2547L142.96 70.6508C142.51 70.3008 141.996 70.043 141.446 69.8924L141.244 70.6302ZM133.11 68.3931L141.244 70.6302L141.447 69.8924L133.314 67.6554L133.11 68.3931ZM131.719 68.2936C132.185 68.235 132.658 68.2688 133.111 68.3931L133.313 67.6554C132.763 67.5043 132.189 67.4632 131.623 67.5344L131.719 68.2936ZM130.396 68.7345C130.804 68.5018 131.253 68.3518 131.719 68.2936L131.623 67.5344C131.058 67.6058 130.512 67.7878 130.016 68.0702L130.396 68.7345ZM124.122 72.069C124.307 72.1233 124.465 72.0606 124.597 72.0001C124.742 71.9335 124.97 71.8095 125.354 71.5945C126.128 71.1621 127.589 70.3241 130.394 68.7352L130.018 68.0694C127.204 69.6613 125.752 70.4947 124.98 70.9271C124.59 71.1452 124.389 71.2532 124.277 71.3044C124.153 71.3611 124.23 71.3021 124.341 71.335L124.122 72.069ZM124.076 72.0529C124.071 72.0514 124.068 72.0499 124.074 72.0529L124.09 72.0583L124.122 72.069L124.341 71.335L124.348 71.3381L124.34 71.3343C124.32 71.327 124.301 71.3206 124.281 71.3151L124.076 72.0529ZM107.527 67.4847L124.077 72.0529L124.28 71.3151L107.731 66.7469L107.527 67.4847ZM107.396 67.4189C108.403 68.1942 109.345 69.0506 110.213 69.9797L110.772 69.4569C109.876 68.4977 108.903 67.6133 107.862 66.8127L107.396 67.4189Z" fill="#1C212D"/>
<path d="M132.768 105.85C133.324 105.816 133.866 105.664 134.359 105.404C134.852 105.144 135.284 104.783 135.627 104.344C135.946 103.935 136.182 103.467 136.321 102.967L143.087 78.7098L110.493 69.718C117.032 76.7153 119.243 87.5033 114.331 96.9543C117.96 95.8889 121.856 96.2091 125.262 97.8528C128.669 99.4965 131.344 102.347 132.768 105.85Z" stroke="#1C212D" stroke-width="0.769171" stroke-linecap="round" stroke-linejoin="round"/>
<path d="M70.4263 36.9842H75.0159" stroke="#1C212D" stroke-width="0.769171" stroke-linecap="round" stroke-linejoin="round"/>
<path d="M83.1492 36.9696L87.7243 36.955" stroke="#1C212D" stroke-width="0.769171" stroke-linecap="round" stroke-linejoin="round"/>
<path d="M79.0684 28.3138V32.9035" stroke="#1C212D" stroke-width="0.769171" stroke-linecap="round" stroke-linejoin="round"/>
<path d="M79.083 41.0364L79.0975 45.6253" stroke="#1C212D" stroke-width="0.769171" stroke-linecap="round" stroke-linejoin="round"/>
<path d="M72.9536 30.8699L76.1925 34.0942" stroke="#1C212D" stroke-width="0.769171" stroke-linecap="round" stroke-linejoin="round"/>
<path d="M81.9583 39.8459L85.2116 43.084" stroke="#1C212D" stroke-width="0.769171" stroke-linecap="round" stroke-linejoin="round"/>
<path d="M85.1827 30.841L81.9438 34.0944" stroke="#1C212D" stroke-width="0.769171" stroke-linecap="round" stroke-linejoin="round"/>
<path d="M76.2069 39.8459L72.968 43.0985" stroke="#1C212D" stroke-width="0.769171" stroke-linecap="round" stroke-linejoin="round"/>
<path d="M9.12367 95.9932L9.10913 103.632" stroke="#1C212D" stroke-width="0.769171" stroke-linecap="round" stroke-linejoin="round"/>
<path d="M12.929 99.812H5.30408" stroke="#1C212D" stroke-width="0.769171" stroke-linecap="round" stroke-linejoin="round"/>
<path d="M150.537 108.642C150.537 109.166 150.329 109.668 149.959 110.039C149.589 110.409 149.086 110.617 148.563 110.617C148.039 110.617 147.536 110.409 147.166 110.039C146.796 109.668 146.588 109.166 146.588 108.642C146.588 108.118 146.796 107.616 147.166 107.246C147.536 106.875 148.039 106.667 148.563 106.667C149.086 106.667 149.589 106.875 149.959 107.246C150.329 107.616 150.537 108.118 150.537 108.642Z" stroke="#1C212D" stroke-width="0.769171" stroke-linecap="round" stroke-linejoin="round"/>
<path d="M42.1936 126.869C38.5709 126.87 35.0406 125.725 32.1067 123.6C29.1728 121.475 26.9852 118.477 25.8562 115.035C25.1064 112.751 24.8439 110.335 25.0857 107.943C25.3276 105.551 26.0684 103.237 27.2602 101.149C28.4521 99.0609 30.0686 97.2462 32.0053 95.8219C33.942 94.3976 36.1558 93.3952 38.504 92.8796C40.852 92.3632 43.2822 92.3452 45.6376 92.8268C44.0376 89.5424 43.7573 85.7696 44.8545 82.2849C45.9516 78.8001 48.3427 75.8684 51.5357 74.0931C54.7288 72.3177 58.4808 71.8338 62.0198 72.7408C65.5589 73.6478 68.6156 75.8768 70.5611 78.9691C72.069 74.1331 75.0833 69.9059 79.1638 66.9044C83.2444 63.9029 88.1775 62.2843 93.2431 62.285C111.243 62.285 122.402 81.425 114.331 96.9542C117.496 96.0272 120.876 96.1494 123.965 97.3027C127.055 98.4559 129.688 100.578 131.472 103.352C132.655 105.193 133.428 107.267 133.739 109.434C134.05 111.6 133.893 113.807 133.276 115.907C132.66 118.006 131.599 119.949 130.165 121.602C128.733 123.256 126.961 124.583 124.971 125.492C122.98 126.401 120.818 126.872 118.63 126.872L42.1936 126.869Z" stroke="#1C212D" stroke-width="0.769171" stroke-linecap="round" stroke-linejoin="round"/>
<path d="M76.6279 116.746C73.3567 115.917 70.4209 114.098 68.2208 111.539C66.0207 108.98 64.6633 105.805 64.3337 102.446C64.1147 100.217 64.3546 97.9664 65.0385 95.8332" stroke="#1C212D" stroke-width="0.769171" stroke-linecap="round" stroke-linejoin="round"/>
<path d="M96.4819 96.3267C97.1096 98.522 97.2725 100.824 96.9604 103.086C96.6482 105.348 95.8677 107.52 94.6689 109.463C93.4704 111.406 91.88 113.078 89.999 114.372C88.1181 115.667 85.9879 116.554 83.7446 116.979" stroke="#1C212D" stroke-width="0.769171" stroke-linecap="round" stroke-linejoin="round"/>
<path d="M69.1345 89.1663C70.7595 87.563 72.7004 86.3153 74.8337 85.5026C76.9669 84.6899 79.246 84.33 81.5259 84.4458C83.8059 84.5619 86.0367 85.1514 88.0765 86.1766C90.1163 87.2018 91.9204 88.6404 93.3739 90.4008" stroke="#1C212D" stroke-width="0.769171" stroke-linecap="round" stroke-linejoin="round"/>
<path d="M61.0442 98.0258L65.0384 95.8332L67.2028 99.8121" stroke="#1C212D" stroke-width="0.769171" stroke-linecap="round" stroke-linejoin="round"/>
<path d="M87.6662 119.303L83.7446 116.965L86.0972 113.087" stroke="#1C212D" stroke-width="0.769171" stroke-linecap="round" stroke-linejoin="round"/>
<path d="M93.6639 85.8848L93.4029 90.43L88.886 90.14" stroke="#1C212D" stroke-width="0.769171" stroke-linecap="round" stroke-linejoin="round"/>
</svg>
