<svg width="155" height="155" viewBox="0 0 155 155" fill="none" xmlns="http://www.w3.org/2000/svg">
<path d="M34.626 104.618V60.8897H31.2954L34.6115 51.5244H34.626V46.4205C34.6256 46.2447 34.6598 46.0705 34.7269 45.9079C34.794 45.7454 34.8925 45.5977 35.0168 45.4734C35.1411 45.3491 35.2888 45.2505 35.4513 45.1835C35.6139 45.1164 35.788 45.0821 35.9638 45.0827H116.4C116.576 45.0809 116.75 45.1144 116.914 45.1809C117.077 45.2476 117.225 45.346 117.349 45.4706C117.474 45.5952 117.572 45.7434 117.639 45.9065C117.706 46.0696 117.739 46.2443 117.737 46.4205C117.737 51.8275 117.689 51.5244 117.766 51.5244L121.067 60.8897H117.752V104.618H124.848V43.8321C124.849 43.0719 124.699 42.3191 124.409 41.6167C124.118 40.9143 123.692 40.276 123.154 39.7384C122.616 39.2008 121.978 38.7746 121.276 38.4838C120.574 38.193 119.821 38.0436 119.061 38.044H33.3166C31.7783 38.0458 30.3035 38.6578 29.2157 39.7456C28.1281 40.8334 27.5163 42.3084 27.5146 43.8467V104.618H34.626Z" fill="#FFEE31"/>
<path d="M34.0306 114.071H27.5146V137.774H34.0306V114.071Z" fill="#FFEE31"/>
<path d="M34.626 107.366H27.5146V111.321H34.626V107.366Z" fill="#FFEE31"/>
<path d="M124.846 107.366H117.749V139.592H124.846V107.366Z" fill="#FFEE31"/>
<path d="M27.5146 111.321V107.366" stroke="#1C212D" stroke-width="0.769171" stroke-linecap="round" stroke-linejoin="round"/>
<path d="M27.5146 137.774V114.071" stroke="#1C212D" stroke-width="0.769171" stroke-linecap="round" stroke-linejoin="round"/>
<path d="M124.845 107.366V139.592H27.5146" stroke="#1C212D" stroke-width="0.769171" stroke-linecap="round" stroke-linejoin="round"/>
<path d="M27.5146 104.618V43.8467C27.5163 42.3084 28.1281 40.8334 29.2157 39.7456C30.3035 38.6578 31.7783 38.0458 33.3166 38.044H119.058C119.818 38.0436 120.571 38.193 121.273 38.4838C121.975 38.7746 122.613 39.2008 123.151 39.7384C123.689 40.276 124.115 40.9143 124.406 41.6167C124.696 42.3191 124.846 43.0719 124.845 43.8321V104.618" stroke="#1C212D" stroke-width="0.769171" stroke-linecap="round" stroke-linejoin="round"/>
<path d="M117.734 46.4204V51.5389H34.626V46.4204C34.6255 46.2446 34.6597 46.0704 34.7269 45.9079C34.7939 45.7453 34.8924 45.5977 35.0168 45.4733C35.141 45.349 35.2888 45.2505 35.4512 45.1834C35.6138 45.1164 35.788 45.0821 35.9638 45.0826H116.399C116.576 45.0813 116.75 45.115 116.912 45.1818C117.075 45.2486 117.223 45.3471 117.347 45.4717C117.472 45.5962 117.57 45.7442 117.636 45.9071C117.703 46.07 117.736 46.2445 117.734 46.4204Z" fill="#1C212D"/>
<path d="M117.734 46.4204V51.5389H34.626V46.4204C34.6255 46.2446 34.6597 46.0704 34.7269 45.9079C34.7939 45.7453 34.8924 45.5977 35.0168 45.4733C35.141 45.349 35.2888 45.2505 35.4512 45.1834C35.6138 45.1164 35.788 45.0821 35.9638 45.0826H116.399C116.576 45.0813 116.75 45.115 116.912 45.1818C117.075 45.2486 117.223 45.3471 117.347 45.4717C117.472 45.5962 117.57 45.7442 117.636 45.9071C117.703 46.07 117.736 46.2445 117.734 46.4204Z" stroke="#1C212D" stroke-width="0.769171" stroke-linecap="round" stroke-linejoin="round"/>
<path d="M37.287 60.8898H34.626V104.618H37.287V60.8898Z" fill="#1C212D"/>
<path d="M117.748 60.8898H115.073V104.618H117.748V60.8898Z" fill="#1C212D"/>
<path d="M117.749 60.8898H34.626V104.618H117.749V60.8898Z" stroke="#1C212D" stroke-width="0.769171" stroke-linecap="round" stroke-linejoin="round"/>
<path d="M34.626 107.366V111.321H55.4061V114.071H35.8627V137.774H44.4704V139.592H117.749V107.366H34.626ZM64.9459 122.606H45.9107V120.774H64.9459V122.606Z" fill="#1C212D"/>
<path d="M44.4704 139.592H117.749V107.366H34.626V111.321" stroke="#1C212D" stroke-width="0.769171" stroke-linecap="round" stroke-linejoin="round"/>
<path d="M115.073 60.8898H37.2871V104.618H115.073V60.8898Z" stroke="#1C212D" stroke-width="0.769171" stroke-linecap="round" stroke-linejoin="round"/>
<path d="M128.117 104.618H24.2429V107.366H128.117V104.618Z" stroke="#1C212D" stroke-width="0.769171" stroke-linecap="round" stroke-linejoin="round"/>
<path d="M46.5071 92.4897V95.5724H49.6771V97.6227H50.7531V95.5724H53.9376V92.4897H46.5071Z" fill="#FFEE31"/>
<path d="M44.4558 104.618V97.6374H55.9732V101.579L62.2994 102.771V104.618H44.4558Z" stroke="#1C212D" stroke-width="0.769171" stroke-linecap="round" stroke-linejoin="round"/>
<path d="M55.9731 101.579V102.829" stroke="#1C212D" stroke-width="0.769171" stroke-linecap="round" stroke-linejoin="round"/>
<path d="M109.727 85.5116H73.7495V104.618H109.727V85.5116Z" stroke="#1C212D" stroke-width="0.769171" stroke-linecap="round" stroke-linejoin="round"/>
<path d="M107.366 87.8795H76.1145V104.617H107.366V87.8795Z" stroke="#1C212D" stroke-width="0.769171" stroke-linecap="round" stroke-linejoin="round"/>
<path d="M76.1145 96.2414H107.366" stroke="#1C212D" stroke-width="0.769171" stroke-linecap="round" stroke-linejoin="round"/>
<path d="M83.9894 92.2857C83.9741 92.1395 83.9252 91.9987 83.8448 91.8747C83.7652 91.7508 83.6573 91.6474 83.5303 91.5732C83.5287 91.5732 83.5264 91.5732 83.5249 91.5724C83.5234 91.5717 83.5218 91.5701 83.5203 91.5686C83.5188 91.5678 83.518 91.5663 83.5172 91.564C83.5165 91.5625 83.5157 91.561 83.5157 91.5587C83.5984 91.313 83.4514 90.899 82.8759 90.6854C82.905 90.25 81.9016 89.3331 81.9016 89.3331C81.9016 90.0479 80.9419 90.1933 80.9419 90.6709C80.5493 90.8171 80.2876 91.0643 80.2876 91.4278C80.2853 91.4722 80.2899 91.5158 80.3021 91.5587H80.2876C80.1605 91.6367 80.0534 91.7431 79.9738 91.8686C79.8942 91.9949 79.8444 92.1372 79.8284 92.2857H83.9894Z" fill="#1C212D"/>
<path d="M83.9894 92.2857C83.9741 92.1395 83.9252 91.9987 83.8448 91.8747C83.7652 91.7508 83.6573 91.6474 83.5303 91.5732C83.5287 91.5732 83.5264 91.5732 83.5249 91.5724C83.5234 91.5717 83.5218 91.5701 83.5203 91.5686C83.5188 91.5678 83.518 91.5663 83.5172 91.564C83.5165 91.5625 83.5157 91.561 83.5157 91.5587C83.5984 91.313 83.4514 90.899 82.8759 90.6854C82.905 90.25 81.9016 89.3331 81.9016 89.3331C81.9016 90.0479 80.9419 90.1933 80.9419 90.6709C80.5493 90.8171 80.2876 91.0643 80.2876 91.4278C80.2853 91.4722 80.2899 91.5158 80.3021 91.5587H80.2876C80.1605 91.6367 80.0534 91.7431 79.9738 91.8686C79.8942 91.9949 79.8444 92.1372 79.8284 92.2857H83.9894Z" stroke="#1C212D" stroke-width="0.769171" stroke-linecap="round" stroke-linejoin="round"/>
<path d="M84.0039 94.9329L84.4906 92.2864H79.3423L79.829 94.9329H84.0039Z" stroke="#1C212D" stroke-width="0.769171" stroke-linecap="round" stroke-linejoin="round"/>
<path d="M84.6217 96.2417H79.3861L78.0774 94.933H85.9304L84.6217 96.2417Z" stroke="#1C212D" stroke-width="0.769171" stroke-linecap="round" stroke-linejoin="round"/>
<path d="M93.7912 100.663C93.7759 100.516 93.7269 100.376 93.6466 100.252C93.567 100.128 93.4591 100.024 93.332 99.9502C93.3297 99.9502 93.3282 99.9494 93.3267 99.9486C93.3244 99.9479 93.3229 99.9471 93.3213 99.9456C93.3198 99.944 93.319 99.9425 93.3183 99.941C93.3175 99.9387 93.3175 99.9371 93.3175 99.9349C93.3994 99.6899 93.2532 99.2759 92.6777 99.0624C92.7068 98.6269 91.7034 97.7101 91.7034 97.7101C91.7034 98.4249 90.7437 98.5703 90.7437 99.0478C90.3503 99.194 90.0886 99.4404 90.0886 99.8047C90.0863 99.8484 90.0909 99.8928 90.1031 99.9349H90.0886C89.9615 100.013 89.8544 100.119 89.7748 100.246C89.6952 100.372 89.6455 100.514 89.6294 100.663H93.7912Z" fill="#1C212D"/>
<path d="M93.7912 100.663C93.7759 100.516 93.7269 100.376 93.6466 100.252C93.567 100.128 93.4591 100.024 93.332 99.9502C93.3297 99.9502 93.3282 99.9494 93.3267 99.9486C93.3244 99.9479 93.3229 99.9471 93.3213 99.9456C93.3198 99.944 93.319 99.9425 93.3183 99.941C93.3175 99.9387 93.3175 99.9371 93.3175 99.9349C93.3994 99.6899 93.2532 99.2759 92.6777 99.0624C92.7068 98.6269 91.7034 97.7101 91.7034 97.7101C91.7034 98.4249 90.7437 98.5703 90.7437 99.0478C90.3503 99.194 90.0886 99.4404 90.0886 99.8047C90.0863 99.8484 90.0909 99.8928 90.1031 99.9349H90.0886C89.9615 100.013 89.8544 100.119 89.7748 100.246C89.6952 100.372 89.6455 100.514 89.6294 100.663H93.7912Z" stroke="#1C212D" stroke-width="0.769171" stroke-linecap="round" stroke-linejoin="round"/>
<path d="M93.8056 103.309L94.2924 100.663H89.144L89.6308 103.309H93.8056Z" stroke="#1C212D" stroke-width="0.769171" stroke-linecap="round" stroke-linejoin="round"/>
<path d="M94.4232 104.618H89.1876L87.8789 103.309H95.7319L94.4232 104.618Z" stroke="#1C212D" stroke-width="0.769171" stroke-linecap="round" stroke-linejoin="round"/>
<path d="M93.4592 92.0966C92.3533 92.2351 91.2336 92.216 90.1331 92.0392" stroke="#1C212D" stroke-width="0.769171" stroke-linecap="round" stroke-linejoin="round"/>
<path d="M90.3252 92.6018C90.2578 91.8717 90.0374 91.8602 89.8484 92.5138C90.0053 92.5467 90.1576 92.5735 90.3252 92.6018Z" fill="#FFEE31"/>
<path d="M89.8484 92.5153C89.9372 92.2091 90.039 92.0262 90.1331 92.0408C90.3229 92.0698 90.3948 92.8826 90.3076 93.8584C90.2777 94.2204 90.2219 94.5801 90.1407 94.9344" stroke="#1C212D" stroke-width="0.769171" stroke-linecap="round" stroke-linejoin="round"/>
<path d="M88.9695 93.5515C88.7146 95.1013 88.0289 94.9773 88.3006 93.3479C88.5646 91.7629 89.2305 91.9665 88.9695 93.5515Z" fill="#FFEE31"/>
<path d="M88.9695 93.5515C88.7146 95.1013 88.0289 94.9773 88.3006 93.3479C88.5646 91.7629 89.2305 91.9665 88.9695 93.5515Z" stroke="#1C212D" stroke-width="0.769171" stroke-linecap="round" stroke-linejoin="round"/>
<path d="M90.3251 92.6017C89.8276 92.5198 89.3355 92.405 88.8533 92.2573C89.0278 92.3155 89.0829 92.8971 88.9842 93.5515C88.8679 94.2058 88.6352 94.6994 88.4485 94.642C88.8518 94.7813 89.1319 94.8716 89.3409 94.9329" stroke="#1C212D" stroke-width="0.769171" stroke-linecap="round" stroke-linejoin="round"/>
<path d="M88.7369 94.352C88.5188 94.1775 87.4121 93.0869 87.4718 92.767C87.5284 92.4609 88.8387 92.7525 89.0132 92.7525C89.0461 93.2997 88.9512 93.8476 88.7369 94.352Z" fill="#1C212D"/>
<path d="M88.7369 94.352C88.5188 94.1775 87.4121 93.0869 87.4718 92.767C87.5284 92.4609 88.8387 92.7525 89.0132 92.7525C89.0461 93.2997 88.9512 93.8476 88.7369 94.352Z" stroke="#1C212D" stroke-width="0.769171" stroke-linecap="round" stroke-linejoin="round"/>
<path d="M93.2998 92.6333C93.495 92.6012 93.6473 92.5744 93.7797 92.5492C93.6144 91.9071 93.4024 91.8772 93.2998 92.6333Z" fill="#FFEE31"/>
<path d="M93.7797 92.5488C93.6994 92.2389 93.6014 92.0537 93.5073 92.0682C93.2157 92.1164 93.1751 93.9249 93.3802 94.9328" stroke="#1C212D" stroke-width="0.769171" stroke-linecap="round" stroke-linejoin="round"/>
<path d="M95.1067 94.7148C95.5659 94.5732 95.2444 92.2129 94.8006 92.3155C94.3398 92.4571 94.6674 94.8503 95.1067 94.7148Z" fill="#FFEE31"/>
<path d="M95.1067 94.7148C95.5659 94.5732 95.2444 92.2129 94.8006 92.3155C94.3398 92.4571 94.6674 94.8503 95.1067 94.7148Z" stroke="#1C212D" stroke-width="0.769171" stroke-linecap="round" stroke-linejoin="round"/>
<path d="M94.3858 94.9331C94.6246 94.8695 94.8611 94.7976 95.0922 94.7149C94.6514 94.8504 94.3269 92.458 94.7861 92.3156C94.2963 92.448 93.8004 92.5544 93.2991 92.6333" stroke="#1C212D" stroke-width="0.769171" stroke-linecap="round" stroke-linejoin="round"/>
<path d="M94.8159 94.4094C95.034 94.2494 96.1851 93.1849 96.1392 92.8535C96.0971 92.5473 94.7723 92.7953 94.6085 92.7953C94.5427 93.3425 94.6139 93.8974 94.8159 94.4094Z" fill="#1C212D"/>
<path d="M94.8159 94.4094C95.034 94.2494 96.1851 93.1849 96.1392 92.8535C96.0971 92.5473 94.7723 92.7953 94.6085 92.7953C94.5427 93.3425 94.6139 93.8974 94.8159 94.4094Z" stroke="#1C212D" stroke-width="0.769171" stroke-linecap="round" stroke-linejoin="round"/>
<path d="M94.2489 96.2417H89.0278L87.7046 94.933H95.5721L94.2489 96.2417Z" stroke="#1C212D" stroke-width="0.769171" stroke-linecap="round" stroke-linejoin="round"/>
<path d="M102.934 100.475C101.828 100.613 100.708 100.593 99.6077 100.416" stroke="#1C212D" stroke-width="0.769171" stroke-linecap="round" stroke-linejoin="round"/>
<path d="M99.7988 100.978C99.7315 100.247 99.5118 100.236 99.322 100.889C99.4774 100.922 99.6305 100.95 99.7988 100.978Z" fill="#FFEE31"/>
<path d="M99.3242 100.889C99.413 100.583 99.5148 100.4 99.6097 100.415C99.7987 100.444 99.8714 101.257 99.7842 102.233C99.7543 102.595 99.6985 102.955 99.6166 103.309" stroke="#1C212D" stroke-width="0.769171" stroke-linecap="round" stroke-linejoin="round"/>
<path d="M98.4442 101.929C98.1885 103.479 97.5036 103.355 97.7753 101.725C98.0393 100.139 98.7051 100.343 98.4442 101.929Z" fill="#FFEE31"/>
<path d="M98.4442 101.929C98.1885 103.479 97.5036 103.355 97.7753 101.725C98.0393 100.139 98.7051 100.343 98.4442 101.929Z" stroke="#1C212D" stroke-width="0.769171" stroke-linecap="round" stroke-linejoin="round"/>
<path d="M99.7989 100.978C99.3015 100.896 98.8101 100.782 98.328 100.633C98.5024 100.692 98.5576 101.273 98.4588 101.928C98.3425 102.582 98.1098 103.076 97.9231 103.019C98.3257 103.157 98.6058 103.248 98.8147 103.309" stroke="#1C212D" stroke-width="0.769171" stroke-linecap="round" stroke-linejoin="round"/>
<path d="M98.2115 102.728C97.9934 102.553 96.8867 101.462 96.9456 101.143C97.003 100.837 98.3133 101.128 98.4878 101.128C98.5199 101.675 98.425 102.223 98.2115 102.728Z" fill="#1C212D"/>
<path d="M98.2115 102.728C97.9934 102.553 96.8867 101.462 96.9456 101.143C97.003 100.837 98.3133 101.128 98.4878 101.128C98.5199 101.675 98.425 102.223 98.2115 102.728Z" stroke="#1C212D" stroke-width="0.769171" stroke-linecap="round" stroke-linejoin="round"/>
<path d="M102.774 101.01C102.969 100.978 103.122 100.951 103.254 100.926C103.088 100.283 102.877 100.254 102.774 101.01Z" fill="#FFEE31"/>
<path d="M103.253 100.925C103.177 100.615 103.075 100.43 102.981 100.445C102.689 100.493 102.649 102.301 102.855 103.309" stroke="#1C212D" stroke-width="0.769171" stroke-linecap="round" stroke-linejoin="round"/>
<path d="M104.581 103.091C105.04 102.95 104.719 100.589 104.274 100.692C103.814 100.834 104.141 103.23 104.581 103.091Z" fill="#FFEE31"/>
<path d="M104.581 103.091C105.04 102.95 104.719 100.589 104.274 100.692C103.814 100.834 104.141 103.23 104.581 103.091Z" stroke="#1C212D" stroke-width="0.769171" stroke-linecap="round" stroke-linejoin="round"/>
<path d="M103.86 103.306C104.098 103.242 104.336 103.171 104.566 103.088C104.126 103.223 103.801 100.831 104.26 100.689C103.77 100.821 103.274 100.928 102.774 101.007" stroke="#1C212D" stroke-width="0.769171" stroke-linecap="round" stroke-linejoin="round"/>
<path d="M104.29 102.786C104.508 102.626 105.659 101.561 105.613 101.23C105.572 100.924 104.246 101.172 104.082 101.172C104.017 101.719 104.088 102.273 104.29 102.786Z" fill="#1C212D"/>
<path d="M104.29 102.786C104.508 102.626 105.659 101.561 105.613 101.23C105.572 100.924 104.246 101.172 104.082 101.172C104.017 101.719 104.088 102.273 104.29 102.786Z" stroke="#1C212D" stroke-width="0.769171" stroke-linecap="round" stroke-linejoin="round"/>
<path d="M103.723 104.618H98.5024L97.1792 103.309H105.046L103.723 104.618Z" stroke="#1C212D" stroke-width="0.769171" stroke-linecap="round" stroke-linejoin="round"/>
<path d="M99.3505 94.933H103.177L103.451 94.584C103.657 94.3253 103.802 94.0238 103.875 93.7016C103.948 93.3794 103.947 93.0449 103.873 92.7227L103.786 92.3156C103.714 91.9918 103.569 91.688 103.362 91.4286C103.156 91.1691 102.892 90.9602 102.592 90.8178L102.215 90.6288C101.918 90.4849 101.592 90.4107 101.262 90.4107C100.932 90.4107 100.606 90.4849 100.309 90.6288L99.9314 90.8178C99.6329 90.9625 99.3712 91.1714 99.1645 91.4309C98.9586 91.6903 98.8132 91.9926 98.739 92.3156C98.5744 92.764 98.5454 93.2508 98.654 93.7153C98.762 94.1807 99.0046 94.6039 99.3505 94.933Z" stroke="#1C212D" stroke-width="0.769171" stroke-linecap="round" stroke-linejoin="round"/>
<path d="M100.808 94.5243C100.759 94.5396 100.717 94.574 100.692 94.6207C100.668 94.6666 100.662 94.721 100.678 94.7707C100.734 94.9399 100.743 95.0149 100.831 95.0623C100.953 95.1304 101.06 95.0493 101.332 94.9177C101.374 94.8909 101.405 94.8503 101.421 94.8036C101.436 94.7562 101.434 94.7049 101.417 94.659C101.266 94.3291 101.248 94.3774 100.808 94.5243Z" fill="#FFEE31"/>
<path d="M102.976 92.836C102.627 93.1092 102.561 93.1421 102.583 93.283C102.603 93.4092 102.72 93.4444 102.981 93.5814C103.012 93.5983 103.045 93.6067 103.08 93.6052C103.114 93.6044 103.149 93.5944 103.178 93.5768C103.287 93.5103 103.264 93.4154 103.292 93.0136C103.296 92.9753 103.289 92.9363 103.271 92.9026C103.253 92.8681 103.226 92.8398 103.192 92.8207C103.159 92.8023 103.12 92.7931 103.081 92.7962C103.043 92.7985 103.006 92.8123 102.976 92.836Z" fill="#FFEE31"/>
<path d="M99.74 92.5643C99.5234 92.5696 99.303 92.5482 99.2693 92.7288L99.2524 92.8245C99.2524 93.0166 99.3558 93.0273 99.6351 93.1673C99.6634 93.1827 99.6956 93.1911 99.7277 93.1918C99.7598 93.1926 99.792 93.185 99.8211 93.1712C99.8502 93.1566 99.8746 93.1352 99.8938 93.1092C99.9129 93.0832 99.9252 93.0525 99.9297 93.0204L99.9443 92.7663C99.9451 92.7395 99.9405 92.7127 99.9305 92.6875C99.9206 92.6622 99.9053 92.64 99.8861 92.6209C99.867 92.6018 99.844 92.5872 99.8188 92.5773C99.7935 92.5673 99.7667 92.5635 99.74 92.5643Z" fill="#FFEE31"/>
<path d="M101.73 91.3007C101.496 91.2586 101.405 91.2196 101.32 91.3359C101.259 91.4201 101.288 91.4805 101.338 91.642C101.345 91.6681 101.359 91.6925 101.378 91.7124C101.396 91.7323 101.419 91.7476 101.445 91.7561C101.471 91.7645 101.499 91.7668 101.526 91.7622C101.553 91.7576 101.578 91.7469 101.6 91.73L101.787 91.6283C101.816 91.6084 101.839 91.5808 101.853 91.5487C101.867 91.5165 101.871 91.4805 101.865 91.4461C101.858 91.4109 101.842 91.3788 101.819 91.3535C101.795 91.3275 101.764 91.3091 101.73 91.3007Z" fill="#FFEE31"/>
<path d="M101.391 92.8543C101.366 92.8191 101.33 92.7931 101.289 92.7816C101.248 92.7694 101.203 92.7724 101.163 92.79C101.124 92.8069 101.092 92.8375 101.072 92.8758C101.053 92.914 101.047 92.9584 101.056 93.0005L101.102 93.3411C101.106 93.3801 101.122 93.4161 101.148 93.4459C101.173 93.475 101.208 93.4964 101.245 93.5064C101.284 93.5156 101.323 93.514 101.36 93.501C101.397 93.4873 101.428 93.4635 101.451 93.4314C101.597 93.2347 101.62 93.2225 101.62 93.1452C101.62 93.0036 101.49 92.9347 101.391 92.8543Z" fill="#FFEE31"/>
<path d="M103.89 96.2418H98.6547L97.3459 94.9331H105.199L103.89 96.2418Z" stroke="#1C212D" stroke-width="0.769171" stroke-linecap="round" stroke-linejoin="round"/>
<path d="M79.9946 103.306H83.8212L84.0944 102.957C84.3003 102.699 84.4449 102.397 84.5184 102.075C84.5911 101.753 84.5903 101.418 84.5161 101.096L84.4289 100.689C84.3569 100.365 84.2123 100.061 84.0056 99.8019C83.799 99.5424 83.5365 99.3335 83.2365 99.1911L82.8584 99.0021C82.5615 98.8582 82.2362 98.784 81.9063 98.784C81.5765 98.784 81.2505 98.8582 80.9535 99.0021L80.5754 99.1911C80.277 99.335 80.0152 99.5447 79.8086 99.8041C79.602 100.064 79.4565 100.366 79.3823 100.689C79.2178 101.137 79.1887 101.624 79.2974 102.089C79.406 102.554 79.6486 102.977 79.9946 103.306Z" stroke="#1C212D" stroke-width="0.769171" stroke-linecap="round" stroke-linejoin="round"/>
<path d="M81.4533 102.9C81.4288 102.908 81.4051 102.92 81.3852 102.937C81.3653 102.953 81.3484 102.973 81.3362 102.996C81.3239 103.019 81.317 103.045 81.314 103.071C81.3117 103.096 81.3147 103.123 81.3224 103.147C81.3783 103.316 81.3882 103.391 81.4755 103.439C81.5979 103.507 81.7051 103.426 81.9768 103.293C82.0188 103.267 82.0502 103.226 82.0655 103.179C82.0816 103.132 82.0801 103.081 82.0625 103.035C81.9102 102.706 81.8918 102.753 81.4533 102.9Z" fill="#FFEE31"/>
<path d="M83.6198 101.212C83.2716 101.485 83.205 101.521 83.2272 101.658C83.2494 101.795 83.3642 101.821 83.6252 101.958C83.6558 101.974 83.6895 101.982 83.7239 101.981C83.7584 101.981 83.792 101.971 83.8219 101.953C83.9306 101.887 83.9076 101.792 83.9367 101.39C83.9405 101.352 83.9336 101.313 83.9153 101.278C83.8977 101.244 83.8701 101.216 83.8364 101.197C83.8028 101.178 83.7645 101.169 83.7262 101.172C83.6872 101.174 83.6505 101.189 83.6198 101.212Z" fill="#FFEE31"/>
<path d="M80.384 100.941C80.1674 100.946 79.947 100.925 79.9133 101.105L79.8965 101.201C79.8965 101.393 80.0006 101.403 80.2791 101.543C80.3075 101.559 80.3396 101.568 80.3717 101.568C80.4047 101.569 80.4368 101.562 80.4659 101.548C80.495 101.533 80.5202 101.512 80.5386 101.486C80.5577 101.459 80.57 101.428 80.5746 101.396L80.5891 101.142C80.5899 101.115 80.5845 101.088 80.5746 101.063C80.5646 101.039 80.5493 101.016 80.5302 100.997C80.511 100.978 80.4881 100.964 80.4628 100.954C80.4376 100.944 80.4108 100.94 80.384 100.941Z" fill="#FFEE31"/>
<path d="M82.3747 99.6772C82.1398 99.6351 82.0495 99.5953 81.9645 99.7124C81.9033 99.7959 81.9324 99.8571 81.9821 100.019C81.989 100.045 82.0028 100.069 82.0211 100.089C82.0403 100.109 82.0632 100.124 82.0893 100.133C82.1153 100.141 82.1428 100.143 82.1696 100.139C82.1972 100.134 82.2224 100.123 82.2439 100.107L82.4314 100.005C82.4604 99.9849 82.4834 99.9573 82.4972 99.9252C82.511 99.8931 82.5148 99.8571 82.5094 99.8226C82.5033 99.7882 82.4872 99.7561 82.4635 99.73C82.4398 99.704 82.4084 99.6857 82.3747 99.6772Z" fill="#FFEE31"/>
<path d="M82.0356 101.231C82.0111 101.196 81.9751 101.17 81.9338 101.158C81.8917 101.146 81.8481 101.149 81.8083 101.167C81.7685 101.183 81.7363 101.214 81.7172 101.252C81.6973 101.29 81.6919 101.335 81.7011 101.377L81.7463 101.718C81.7509 101.757 81.7669 101.793 81.7922 101.823C81.8182 101.852 81.8519 101.874 81.8902 101.884C81.9284 101.893 81.9682 101.891 82.005 101.878C82.0417 101.864 82.0738 101.839 82.096 101.807C82.2414 101.61 82.2659 101.598 82.2659 101.521C82.2659 101.38 82.1343 101.311 82.0356 101.231Z" fill="#FFEE31"/>
<path d="M84.5343 104.618H79.2987L77.99 103.309H85.843L84.5343 104.618Z" stroke="#1C212D" stroke-width="0.769171" stroke-linecap="round" stroke-linejoin="round"/>
<path d="M46.2871 80.856C46.3323 81.1636 46.4866 81.4438 46.7216 81.6473C46.9566 81.8501 47.2569 81.9619 47.5675 81.9619C47.8781 81.9619 48.1784 81.8501 48.4134 81.6473C48.6484 81.4438 48.8027 81.1636 48.8479 80.856H46.2871Z" stroke="#1C212D" stroke-width="0.769171" stroke-linecap="round" stroke-linejoin="round"/>
<path d="M47.5684 73.4393C45.9689 73.4393 44.6448 76.682 44.4558 80.8561H50.6657C50.4912 76.682 49.1679 73.4393 47.5684 73.4393Z" fill="#1C212D"/>
<path d="M47.5684 73.4393C45.9689 73.4393 44.6448 76.682 44.4558 80.8561H50.6657C50.4912 76.682 49.1679 73.4393 47.5684 73.4393Z" stroke="#1C212D" stroke-width="0.769171" stroke-linecap="round" stroke-linejoin="round"/>
<path d="M47.5686 73.4396V60.8898" stroke="#1C212D" stroke-width="0.769171" stroke-linecap="round" stroke-linejoin="round"/>
<path d="M71.7993 77.3372C71.8506 77.6387 72.0068 77.9119 72.2403 78.1086C72.4738 78.3061 72.7695 78.414 73.0751 78.414C73.3806 78.414 73.6764 78.3061 73.9099 78.1086C74.1434 77.9119 74.2996 77.6387 74.3509 77.3372H71.7993Z" stroke="#1C212D" stroke-width="0.769171" stroke-linecap="round" stroke-linejoin="round"/>
<path d="M73.0737 69.9205C71.4742 69.9205 70.1509 73.1632 69.9619 77.3365H76.171C75.998 73.1632 74.6748 69.9205 73.0737 69.9205Z" fill="#1C212D"/>
<path d="M73.0737 69.9205C71.4742 69.9205 70.1509 73.1632 69.9619 77.3365H76.171C75.998 73.1632 74.6748 69.9205 73.0737 69.9205Z" stroke="#1C212D" stroke-width="0.769171" stroke-linecap="round" stroke-linejoin="round"/>
<path d="M73.0752 69.9206V60.8898" stroke="#1C212D" stroke-width="0.769171" stroke-linecap="round" stroke-linejoin="round"/>
<path d="M59.0415 71.9279C59.0867 72.2352 59.241 72.516 59.476 72.719C59.7111 72.922 60.0113 73.0337 60.3219 73.0337C60.6325 73.0337 60.9328 72.922 61.1678 72.719C61.4029 72.516 61.5571 72.2352 61.6023 71.9279H59.0415Z" stroke="#1C212D" stroke-width="0.769171" stroke-linecap="round" stroke-linejoin="round"/>
<path d="M60.3218 64.5105C58.7222 64.5105 57.399 67.7539 57.21 71.9273H63.419C63.2445 67.7539 61.9213 64.5105 60.3218 64.5105Z" fill="#1C212D"/>
<path d="M60.3218 64.5105C58.7222 64.5105 57.399 67.7539 57.21 71.9273H63.419C63.2445 67.7539 61.9213 64.5105 60.3218 64.5105Z" stroke="#1C212D" stroke-width="0.769171" stroke-linecap="round" stroke-linejoin="round"/>
<path d="M60.322 64.5106V60.8898" stroke="#1C212D" stroke-width="0.769171" stroke-linecap="round" stroke-linejoin="round"/>
<path d="M58.3444 73.9049L57.2683 74.9809" stroke="#1C212D" stroke-width="0.769171" stroke-linecap="round" stroke-linejoin="round"/>
<path d="M62.2996 73.9049L63.3756 74.9809" stroke="#1C212D" stroke-width="0.769171" stroke-linecap="round" stroke-linejoin="round"/>
<path d="M60.322 74.4427V75.9404" stroke="#1C212D" stroke-width="0.769171" stroke-linecap="round" stroke-linejoin="round"/>
<path d="M121.064 60.8896H31.2954L34.6116 51.5244H117.763L121.064 60.8896Z" stroke="#1C212D" stroke-width="0.769171" stroke-linecap="round" stroke-linejoin="round"/>
<path d="M103.89 107.366V139.592" stroke="#1C212D" stroke-width="0.769171" stroke-linecap="round" stroke-linejoin="round"/>
<path d="M90.031 107.366V139.592" stroke="#1C212D" stroke-width="0.769171" stroke-linecap="round" stroke-linejoin="round"/>
<path d="M76.187 107.366V139.592" stroke="#1C212D" stroke-width="0.769171" stroke-linecap="round" stroke-linejoin="round"/>
<path d="M62.3286 122.606V139.592" stroke="#1C212D" stroke-width="0.769171" stroke-linecap="round" stroke-linejoin="round"/>
<path d="M62.3286 107.366V120.774" stroke="#1C212D" stroke-width="0.769171" stroke-linecap="round" stroke-linejoin="round"/>
<path d="M48.47 122.606V139.592" stroke="#1C212D" stroke-width="0.769171" stroke-linecap="round" stroke-linejoin="round"/>
<path d="M48.47 114.071V120.774" stroke="#1C212D" stroke-width="0.769171" stroke-linecap="round" stroke-linejoin="round"/>
<path d="M48.47 107.366V111.321" stroke="#1C212D" stroke-width="0.769171" stroke-linecap="round" stroke-linejoin="round"/>
<path d="M103.89 45.0682V51.5245L106.1 60.8898" stroke="#1C212D" stroke-width="0.769171" stroke-linecap="round" stroke-linejoin="round"/>
<path d="M90.031 45.0682V51.5245L91.1361 60.8898" stroke="#1C212D" stroke-width="0.769171" stroke-linecap="round" stroke-linejoin="round"/>
<path d="M76.187 45.0682V60.8898" stroke="#1C212D" stroke-width="0.769171" stroke-linecap="round" stroke-linejoin="round"/>
<path d="M62.3285 45.0682V51.5245L61.2234 60.8898" stroke="#1C212D" stroke-width="0.769171" stroke-linecap="round" stroke-linejoin="round"/>
<path d="M48.47 45.0682V51.5245L46.2598 60.8898" stroke="#1C212D" stroke-width="0.769171" stroke-linecap="round" stroke-linejoin="round"/>
<path d="M98.2812 83.4446H103.687C104.422 82.8713 105.015 82.1366 105.419 81.2963C105.823 80.456 106.027 79.5338 106.015 78.6016H95.95C95.9377 79.5345 96.1413 80.4567 96.5462 81.2971C96.9503 82.1374 97.5442 82.8729 98.2812 83.4446Z" fill="#1C212D"/>
<path d="M98.2812 83.4446H103.687C104.422 82.8713 105.015 82.1366 105.419 81.2963C105.823 80.456 106.027 79.5338 106.015 78.6016H95.95C95.9377 79.5345 96.1413 80.4567 96.5462 81.2971C96.9503 82.1374 97.5442 82.8729 98.2812 83.4446Z" stroke="#1C212D" stroke-width="0.769171" stroke-linecap="round" stroke-linejoin="round"/>
<path d="M105.868 80.013C107.816 79.4282 108.125 82.5309 106.174 82.6916C105.561 82.6051 104.935 82.6748 104.356 82.8952" stroke="#1C212D" stroke-width="0.769171" stroke-linecap="round" stroke-linejoin="round"/>
<path d="M105.243 85.5092H96.9388L94.8594 83.4444H107.322L105.243 85.5092Z" stroke="#1C212D" stroke-width="0.769171" stroke-linecap="round" stroke-linejoin="round"/>
<path d="M99.7162 72.5089C99.7162 73.2069 98.6692 73.2069 98.6692 73.9194C98.6692 74.6174 99.7162 74.6174 99.7162 75.3299C99.7162 76.0279 98.6692 76.0279 98.6692 76.7404" stroke="#1C212D" stroke-width="0.769171" stroke-linecap="round" stroke-linejoin="round"/>
<path d="M103.425 74.6172C103.425 75.3152 102.377 75.3152 102.377 76.0277C102.377 76.7257 103.425 76.7257 103.425 77.4382" stroke="#1C212D" stroke-width="0.769171" stroke-linecap="round" stroke-linejoin="round"/>
<path d="M129.375 55.8248H124.873V57.6424H128.776C128.934 57.0235 129.134 56.4161 129.375 55.8248Z" stroke="#1C212D" stroke-width="0.769171" stroke-linecap="round" stroke-linejoin="round"/>
<path d="M128.73 63.3625H124.873V65.1802H129.272C129.045 64.5892 128.863 63.9814 128.73 63.3625Z" stroke="#1C212D" stroke-width="0.769171" stroke-linecap="round" stroke-linejoin="round"/>
<path d="M128.655 62.9981C130.901 73.8863 143.841 73.0529 148.621 64.1904C152.07 57.7977 150.264 49.6676 143.866 47.5829C135.448 44.8415 126.922 54.5948 128.655 62.9981Z" stroke="#1C212D" stroke-width="0.769171" stroke-linecap="round" stroke-linejoin="round"/>
<path d="M137.642 62.0967C139.315 59.0515 140.727 59.4839 142.63 56.033C144.21 53.1684 143.702 52.0013 144.375 50.0995C148.359 52.4988 149.422 58.2724 146.748 63.1437C144.319 67.5649 139.637 69.7607 135.681 68.6119C136.97 65.7771 136.022 65.0455 137.642 62.0967Z" fill="#FFEE31"/>
<path d="M137.642 62.0967C139.315 59.0515 140.727 59.4839 142.63 56.033C144.21 53.1684 143.702 52.0013 144.375 50.0995C148.359 52.4988 149.422 58.2724 146.748 63.1437C144.319 67.5649 139.637 69.7607 135.681 68.6119C136.97 65.7771 136.022 65.0455 137.642 62.0967Z" stroke="#1C212D" stroke-width="0.769171" stroke-linecap="round" stroke-linejoin="round"/>
<path d="M132.087 55.1023C134.527 50.6504 139.271 48.444 143.241 49.6631C142.377 52.0012 143.026 52.8094 141.568 55.4513C139.873 58.5233 138.488 58.0534 136.58 61.515C134.791 64.7592 135.683 65.712 134.544 68.1901C130.502 65.8192 129.394 60.0157 132.087 55.1023Z" fill="#FFEE31"/>
<path d="M132.087 55.1023C134.527 50.6504 139.271 48.444 143.241 49.6631C142.377 52.0012 143.026 52.8094 141.568 55.4513C139.873 58.5233 138.488 58.0534 136.58 61.515C134.791 64.7592 135.683 65.712 134.544 68.1901C130.502 65.8192 129.394 60.0157 132.087 55.1023Z" stroke="#1C212D" stroke-width="0.769171" stroke-linecap="round" stroke-linejoin="round"/>
<path d="M55.4069 111.322H14.4705V114.07H55.4069V111.322Z" stroke="#1C212D" stroke-width="0.769171" stroke-linecap="round" stroke-linejoin="round"/>
<path d="M35.8629 114.071H34.0308V137.774H35.8629V114.071Z" stroke="#1C212D" stroke-width="0.769171" stroke-linecap="round" stroke-linejoin="round"/>
<path d="M44.471 137.774H25.4351V139.607H44.471V137.774Z" stroke="#1C212D" stroke-width="0.769171" stroke-linecap="round" stroke-linejoin="round"/>
<path d="M23.9956 120.774H4.95972V122.606H23.9956V120.774Z" stroke="#1C212D" stroke-width="0.769171" stroke-linecap="round" stroke-linejoin="round"/>
<path d="M21.4502 139.592L20.0251 122.606H21.8573L23.2831 139.592H21.4502Z" fill="#FFEE31"/>
<path d="M21.4502 139.592L20.0251 122.606H21.8573L23.2831 139.592H21.4502Z" stroke="#1C212D" stroke-width="0.769171" stroke-linecap="round" stroke-linejoin="round"/>
<path d="M7.50431 139.592L8.92932 122.606H7.09715L5.67212 139.592H7.50431Z" fill="#FFEE31"/>
<path d="M7.50431 139.592L8.92932 122.606H7.09715L5.67212 139.592H7.50431Z" stroke="#1C212D" stroke-width="0.769171" stroke-linecap="round" stroke-linejoin="round"/>
<path d="M62.3865 139.592L60.9614 122.606H62.7936L64.2187 139.592H62.3865Z" fill="#FFEE31"/>
<path d="M62.3865 139.592L60.9614 122.606H62.7936L64.2187 139.592H62.3865Z" stroke="#1C212D" stroke-width="0.769171" stroke-linecap="round" stroke-linejoin="round"/>
<path d="M48.4552 139.592L49.8803 122.606H48.0481L46.623 139.592H48.4552Z" fill="#FFEE31"/>
<path d="M48.4552 139.592L49.8803 122.606H48.0481L46.623 139.592H48.4552Z" stroke="#1C212D" stroke-width="0.769171" stroke-linecap="round" stroke-linejoin="round"/>
<path d="M64.9466 120.774H45.9106V122.606H64.9466V120.774Z" stroke="#1C212D" stroke-width="0.769171" stroke-linecap="round" stroke-linejoin="round"/>
<path d="M139.402 91.4864C140.205 91.4864 140.856 90.8351 140.856 90.0323C140.856 89.2295 140.205 88.5782 139.402 88.5782C138.599 88.5782 137.948 89.2295 137.948 90.0323C137.948 90.8351 138.599 91.4864 139.402 91.4864Z" stroke="#1C212D" stroke-width="0.769171" stroke-linecap="round" stroke-linejoin="round"/>
<path d="M8.94374 62.3584L8.9292 70.0515" stroke="#1C212D" stroke-width="0.769171" stroke-linecap="round" stroke-linejoin="round"/>
<path d="M12.7834 66.2124L5.09033 66.1979" stroke="#1C212D" stroke-width="0.769171" stroke-linecap="round" stroke-linejoin="round"/>
<path d="M94.6412 15.5761L92.7944 20.9135H96.6333L94.7139 26.919" stroke="#1C212D" stroke-width="0.769171" stroke-linecap="round" stroke-linejoin="round"/>
</svg>
