<svg width="1501" height="357" viewBox="0 0 1501 357" fill="none" xmlns="http://www.w3.org/2000/svg">
<g clip-path="url(#clip0_2356_4)">
<g clip-path="url(#clip1_2356_4)">
<g clip-path="url(#clip2_2356_4)">
<g clip-path="url(#clip3_2356_4)">
<g clip-path="url(#clip4_2356_4)">
<g clip-path="url(#clip5_2356_4)">
<path d="M735.383 190.635V228.668C735.383 236.7 736.375 242.133 738.359 244.968C740.312 247.803 743.572 249.22 748.139 249.22C748.769 250.953 749.21 252.795 749.462 254.748C749.683 256.732 749.793 259.142 749.793 261.977C746.328 261.662 742.045 261.473 736.942 261.41C731.808 261.315 726.721 261.268 721.682 261.268C718.374 261.268 714.721 261.315 710.721 261.41C706.689 261.473 702.909 261.551 699.381 261.646C695.822 261.709 692.783 261.819 690.263 261.977C690.263 259.457 690.342 257.126 690.499 254.984C690.657 252.874 691.05 250.953 691.68 249.22C696.72 249.22 700.468 247.677 702.925 244.59C705.35 241.535 706.563 235.913 706.563 227.723V198.195C706.563 187.643 704.799 180.43 701.271 176.556C697.712 172.713 692.94 170.792 686.956 170.792C682.861 170.792 678.971 172.162 675.286 174.902C671.569 177.674 668.498 181.895 666.073 187.564C663.616 193.234 662.388 200.478 662.388 209.297V228.668C662.388 236.543 663.49 241.929 665.695 244.826C667.9 247.756 671.68 249.22 677.034 249.22C677.822 251.11 678.294 253.031 678.452 254.984C678.609 256.969 678.688 259.299 678.688 261.977C676.483 261.819 673.617 261.709 670.089 261.646C666.53 261.551 662.829 261.473 658.986 261.41C655.112 261.315 651.443 261.268 647.978 261.268C644.671 261.268 640.97 261.315 636.875 261.41C632.78 261.473 628.89 261.551 625.205 261.646C621.489 261.709 618.449 261.819 616.087 261.977C616.087 259.299 616.213 256.858 616.465 254.654C616.685 252.449 617.032 250.638 617.504 249.22C623.646 249.22 627.867 247.756 630.166 244.826C632.434 241.929 633.568 236.543 633.568 228.668V188.745L662.388 162.76C662.388 164.65 662.23 166.807 661.915 169.233C661.6 171.69 661.049 174.257 660.262 176.934C661.049 175.359 661.837 173.784 662.624 172.209C663.412 170.634 664.435 169.138 665.695 167.721C668.687 164.099 673.097 160.587 678.924 157.185C684.751 153.815 691.523 152.13 699.24 152.13C705.539 152.13 711.445 153.39 716.957 155.909C722.469 158.429 726.926 162.477 730.328 168.052C733.698 173.658 735.383 181.186 735.383 190.635ZM633.568 134.412V128.271C633.568 124.491 633.174 121.42 632.387 119.058C631.599 116.695 629.946 114.884 627.426 113.624C624.906 112.364 621.048 111.656 615.851 111.498C615.851 109.293 616.008 107.215 616.323 105.262C616.638 103.277 617.268 101.498 618.213 99.9229C622.465 99.9229 627.158 99.5292 632.292 98.7418C637.395 97.9543 642.151 96.9307 646.56 95.6708C650.97 94.4109 654.199 93.151 656.246 91.8911C657.978 92.5211 659.443 93.7022 660.64 95.4346C661.805 97.1669 662.388 99.7654 662.388 103.23V134.412H633.568ZM633.568 193.942V126.144H662.388V162.76L633.568 193.942ZM812.63 207.644V222.762C812.63 229.534 813.339 234.763 814.756 238.448C816.174 242.165 818.567 244.763 821.938 246.244C825.339 247.756 829.717 248.748 835.072 249.22C835.702 250.795 836.096 252.685 836.253 254.89C836.411 257.095 836.489 259.457 836.489 261.977C833.97 261.819 830.851 261.709 827.135 261.646C823.449 261.551 819.512 261.473 815.323 261.41C811.166 261.315 806.961 261.268 802.708 261.268C796.252 261.268 789.511 261.315 782.487 261.41C775.495 261.473 770.03 261.662 766.093 261.977C766.093 259.142 766.203 256.701 766.424 254.654C766.676 252.606 767.038 250.795 767.51 249.22C771.762 248.905 775.07 248.118 777.432 246.858C779.794 245.598 781.401 243.393 782.251 240.244C783.133 237.094 783.574 232.605 783.574 226.778V207.644H812.63ZM808.378 189.454L812.63 191.816V211.423H783.574V185.438L812.63 162.76C812.63 167.327 812.158 171.658 811.213 175.753C810.268 179.847 809.323 184.414 808.378 189.454ZM812.63 206.463L807.433 190.635C808.85 186.698 810.142 183.076 811.307 179.769C812.504 176.461 813.654 173.863 814.756 171.973C818.221 166.461 822.394 161.894 827.276 158.272C832.158 154.65 837.671 152.838 843.812 152.838C849.954 152.838 855.545 154.728 860.585 158.508C860.112 161.343 859.719 164.65 859.404 168.43C859.089 172.209 858.852 175.989 858.695 179.769C858.537 183.548 858.537 187.013 858.695 190.163C856.805 190.95 854.207 191.58 850.899 192.053C847.592 192.525 844.442 192.761 841.45 192.761C841.293 185.989 840.269 181.422 838.379 179.06C836.489 176.698 833.97 175.517 830.82 175.517C828.3 175.517 825.623 176.934 822.788 179.769C819.953 182.603 817.544 186.336 815.559 190.966C813.607 195.628 812.63 200.793 812.63 206.463ZM812.63 162.76L783.574 211.423V188.745C783.574 184.493 783.212 181.107 782.487 178.587C781.794 176.068 780.219 174.178 777.763 172.918C775.337 171.658 771.526 170.871 766.329 170.556C766.329 168.351 766.487 166.256 766.802 164.272C767.116 162.319 767.746 160.555 768.691 158.98C775.778 158.665 782.897 157.721 790.047 156.146C797.228 154.571 802.708 152.838 806.488 150.949C808.22 151.579 809.669 152.791 810.835 154.587C812.032 156.413 812.63 159.138 812.63 162.76ZM950.116 263.394C934.997 263.394 921.642 259.882 910.051 252.858C898.492 245.866 889.436 236.102 882.885 223.566C876.365 211.061 873.105 196.698 873.105 180.477C873.105 166.933 875.31 155.122 879.719 145.043C884.129 134.964 890.114 126.538 897.673 119.766C905.232 112.994 913.737 107.907 923.186 104.506C932.635 101.136 942.478 99.4505 952.715 99.4505C962.164 99.4505 971.14 100.474 979.645 102.521C988.149 104.569 996.653 107.64 1005.16 111.734C1004.06 117.246 1003.35 123.105 1003.03 129.31C1002.72 135.546 1002.56 141.893 1002.56 148.35C1000.51 149.295 998.023 149.956 995.094 150.334C992.196 150.744 989.33 150.949 986.495 150.949C986.18 140.712 984.684 132.759 982.007 127.089C979.33 121.42 975.629 117.483 970.904 115.278C966.18 113.073 960.668 111.971 954.368 111.971C945.549 111.971 938.021 113.703 931.785 117.168C925.58 120.632 920.54 125.278 916.666 131.105C912.823 136.932 909.988 143.547 908.162 150.949C906.366 158.35 905.468 166.067 905.468 174.099C905.468 187.643 907.626 199.927 911.941 210.951C916.288 221.975 922.587 230.637 930.84 236.936C939.123 243.236 949.329 246.385 961.455 246.385C968.227 246.385 975.235 245.283 982.479 243.078C989.724 240.873 996.574 237.802 1003.03 233.865C1004.29 234.81 1005.39 236.18 1006.34 237.976C1007.28 239.803 1007.91 241.503 1008.23 243.078C1000.04 249.535 991.377 254.528 982.243 258.055C973.109 261.614 962.4 263.394 950.116 263.394ZM1024.95 261.977C1024.95 259.614 1025.03 257.331 1025.19 255.126C1025.35 252.921 1025.74 250.953 1026.37 249.22C1032.67 249.063 1036.92 247.567 1039.13 244.732C1041.33 241.897 1042.43 236.543 1042.43 228.668V127.326C1042.43 123.861 1042.01 120.979 1041.16 118.68C1040.28 116.412 1038.58 114.679 1036.06 113.483C1033.54 112.317 1029.76 111.656 1024.72 111.498C1024.72 109.293 1024.87 107.215 1025.19 105.262C1025.5 103.277 1026.13 101.498 1027.08 99.9229C1031.33 99.9229 1036.02 99.5292 1041.16 98.7418C1046.26 97.9543 1051.02 96.9307 1055.43 95.6708C1059.84 94.4109 1063.07 93.151 1065.11 91.8911C1066.85 92.5211 1068.31 93.7022 1069.51 95.4346C1070.67 97.1669 1071.25 99.7654 1071.25 103.23V228.668C1071.25 236.543 1072.33 241.897 1074.47 244.732C1076.58 247.567 1080.31 249.063 1085.66 249.22C1086.29 250.953 1086.69 253 1086.85 255.362C1087 257.725 1087.08 259.929 1087.08 261.977C1084.72 261.819 1081.85 261.709 1078.48 261.646C1075.08 261.551 1071.46 261.473 1067.62 261.41C1063.74 261.315 1059.92 261.268 1056.14 261.268C1052.36 261.268 1048.5 261.315 1044.56 261.41C1040.62 261.473 1036.97 261.551 1033.6 261.646C1030.2 261.709 1027.32 261.819 1024.95 261.977ZM1159.37 263.394C1147.71 263.394 1137.64 261.11 1129.13 256.543C1120.63 251.976 1114.14 245.519 1109.67 237.173C1105.16 228.826 1102.91 219.062 1102.91 207.88C1102.91 196.226 1105.4 186.147 1110.37 177.643C1115.32 169.138 1122.12 162.555 1130.78 157.894C1139.45 153.264 1149.21 150.949 1160.08 150.949C1172.36 150.949 1182.72 153.311 1191.16 158.035C1199.57 162.76 1205.98 169.296 1210.39 177.643C1214.8 185.989 1217.01 195.596 1217.01 206.463C1217.01 217.802 1214.61 227.723 1209.83 236.228C1205.01 244.732 1198.31 251.394 1189.75 256.213C1181.15 261 1171.02 263.394 1159.37 263.394ZM1162.2 249.929C1170.24 249.929 1176.3 246.26 1180.39 238.921C1184.49 231.613 1186.53 222.29 1186.53 210.951C1186.53 201.029 1185.2 192.557 1182.52 185.533C1179.84 178.54 1176.3 173.233 1171.89 169.611C1167.48 165.989 1162.68 164.177 1157.48 164.177C1149.29 164.177 1143.23 167.721 1139.29 174.808C1135.35 181.895 1133.38 190.793 1133.38 201.502C1133.38 211.266 1134.56 219.802 1136.93 227.109C1139.29 234.448 1142.6 240.086 1146.85 244.023C1151.1 247.96 1156.22 249.929 1162.2 249.929ZM1279.37 262.449C1268.35 262.449 1259.77 259.299 1253.62 253C1247.48 246.7 1244.41 235.598 1244.41 219.692V188.745C1244.41 182.446 1243.62 177.91 1242.05 175.139C1240.47 172.398 1236.22 170.871 1229.29 170.556C1229.29 168.351 1229.4 166.304 1229.62 164.414C1229.88 162.524 1230.47 160.713 1231.42 158.98C1238.35 158.665 1245.12 157.721 1251.73 156.146C1258.35 154.571 1263.55 152.838 1267.33 150.949C1269.06 151.579 1270.51 152.791 1271.67 154.587C1272.87 156.413 1273.47 159.138 1273.47 162.76V214.022C1273.47 224.574 1274.73 232.322 1277.25 237.267C1279.77 242.244 1284.02 244.732 1290 244.732C1296.93 244.732 1302.79 241.582 1307.58 235.283C1312.4 228.983 1314.81 219.219 1314.81 205.99V187.564C1314.81 181.265 1313.82 176.729 1311.83 173.957C1309.88 171.217 1305.12 169.689 1297.56 169.375C1297.56 167.17 1297.67 165.122 1297.89 163.233C1298.15 161.343 1298.74 159.532 1299.69 157.799C1307.56 157.484 1314.97 156.697 1321.89 155.437C1328.82 154.177 1334.1 152.681 1337.72 150.949C1339.45 151.579 1340.9 152.791 1342.07 154.587C1343.27 156.413 1343.86 159.138 1343.86 162.76V229.849L1318.59 238.354C1317.8 240.873 1316.65 243.189 1315.14 245.299C1313.66 247.441 1312.05 249.378 1310.32 251.11C1306.54 254.732 1302.16 257.52 1297.19 259.473C1292.24 261.457 1286.3 262.449 1279.37 262.449ZM1324.26 263.394C1322.05 262.449 1320.35 261.11 1319.15 259.378C1317.99 257.646 1317.41 254.417 1317.41 249.693C1317.41 247.488 1317.6 244.779 1317.97 241.566C1318.38 238.322 1319.06 234.495 1320 230.086L1343.86 224.652C1343.86 229.062 1344.18 232.558 1344.81 235.141C1345.44 237.755 1346.78 239.614 1348.82 240.716C1350.87 241.818 1353.94 242.37 1358.04 242.37C1358.2 244.574 1358.15 246.858 1357.9 249.22C1357.68 251.583 1357.09 253.787 1356.15 255.835C1351.11 255.992 1345.68 256.732 1339.85 258.055C1334.02 259.41 1328.82 261.189 1324.26 263.394ZM1436.7 150.949C1440.64 150.949 1444.18 151.264 1447.33 151.894C1450.48 152.523 1453.95 153.39 1457.73 154.492V175.044C1454.73 171.579 1451.58 168.823 1448.28 166.776C1444.97 164.729 1440.88 163.705 1435.99 163.705C1432.84 163.705 1429.49 164.335 1425.93 165.595C1422.4 166.855 1419.02 169.06 1415.77 172.209C1412.56 175.359 1409.88 179.847 1407.74 185.674C1405.63 191.501 1404.58 198.982 1404.58 208.116C1404.58 216.621 1405.76 223.629 1408.12 229.141C1410.48 234.653 1413.5 238.826 1417.19 241.661C1420.91 244.496 1424.65 245.913 1428.43 245.913C1432.84 245.913 1437.02 244.527 1440.95 241.755C1444.89 239.015 1448.15 234.574 1450.73 228.432C1453.35 222.29 1454.66 214.101 1454.66 203.864L1463.16 228.432C1460.8 234.102 1458.62 238.48 1456.64 241.566C1454.69 244.622 1453 246.937 1451.58 248.512C1450.01 250.559 1447.68 252.716 1444.59 254.984C1441.54 257.284 1437.92 259.252 1433.73 260.89C1429.57 262.559 1424.97 263.394 1419.93 263.394C1410.8 263.394 1402.8 261.614 1395.93 258.055C1389.09 254.528 1383.79 249.031 1380.01 241.566C1376.23 234.07 1374.34 224.337 1374.34 212.368C1374.34 200.714 1376.94 190.273 1382.13 181.044C1387.33 171.847 1394.57 164.524 1403.87 159.075C1413.16 153.657 1424.1 150.949 1436.7 150.949ZM1460.8 229.377L1483.71 224.652C1483.71 229.062 1484.03 232.558 1484.66 235.141C1485.29 237.755 1486.63 239.614 1488.67 240.716C1490.72 241.818 1493.79 242.37 1497.89 242.37C1498.04 244.574 1498 246.858 1497.74 249.22C1497.52 251.583 1496.94 253.787 1496 255.835C1490.96 255.992 1485.52 256.732 1479.7 258.055C1473.87 259.41 1468.67 261.189 1464.11 263.394C1461.9 262.449 1460.2 261.11 1459 259.378C1457.84 257.646 1457.25 254.417 1457.25 249.693C1457.25 246.543 1457.57 243.551 1458.2 240.716C1458.83 237.881 1459.7 234.102 1460.8 229.377ZM1454.66 126.144H1483.71V230.794H1454.66V126.144ZM1477.57 91.8911C1479.3 92.5211 1480.75 93.7022 1481.92 95.4346C1483.11 97.1669 1483.71 99.7654 1483.71 103.23V134.412H1454.66V128.271C1454.66 124.491 1454.29 121.42 1453.57 119.058C1452.88 116.695 1451.27 114.884 1448.75 113.624C1446.23 112.364 1442.37 111.656 1437.17 111.498C1437.17 109.293 1437.33 107.215 1437.65 105.262C1437.96 103.277 1438.59 101.498 1439.54 99.9229C1443.63 99.9229 1448.23 99.5292 1453.33 98.7418C1458.47 97.9543 1463.24 96.9307 1467.65 95.6708C1472.06 94.4109 1475.37 93.151 1477.57 91.8911Z" fill="white"/>
</g>
</g>
</g>
</g>
<g clip-path="url(#clip6_2356_4)">
<g clip-path="url(#clip7_2356_4)">
<path d="M444.428 91.2043C440.533 91.2043 436.619 91.3959 432.627 91.779C413.598 38.5342 362.818 2.25 305.435 2.25C268.033 2.25 232.713 17.5759 207.228 44.5879C199.155 42.3215 190.81 41.1699 182.425 41.1651C145.802 41.1651 112.654 62.9663 97.8578 96.0895C42.0266 111.709 2.1792 163.639 2.1792 222.113C2.1792 294.305 60.9095 353.035 133.095 353.035C161.192 353.035 188.447 343.942 210.931 327.249C233.434 343.977 260.723 353.018 288.762 353.035C316.846 353.035 344.101 343.942 366.598 327.249C389.101 343.977 416.389 353.018 444.428 353.035C516.614 353.035 575.337 294.305 575.337 222.113C575.337 149.922 516.614 91.2043 444.428 91.2043ZM298.493 281.878C275.109 281.878 254.163 271.635 239.718 255.447C228.969 259.722 217.506 261.915 205.938 261.91C155.368 261.91 114.365 220.926 114.365 170.363C114.365 168.172 114.48 166.001 114.627 163.868C122.29 212.643 164.494 249.936 215.414 249.936C228.241 249.934 240.954 247.516 252.886 242.81C253.85 244.259 254.93 245.626 255.977 247.012C270.39 265.76 292.989 277.893 318.456 277.893C320.295 277.893 322.095 277.734 323.909 277.606C315.73 280.42 307.143 281.863 298.493 281.878ZM508.51 325.461C533.07 304.312 548.683 273.053 548.683 238.078C548.683 174.367 497.035 122.718 433.33 122.718C426.382 122.718 419.632 123.44 413.036 124.615C399.491 73.5348 352.964 35.8713 297.619 35.8713C260.587 35.8713 227.509 52.7234 205.606 79.1543C196.638 75.684 187.11 73.8896 177.495 73.8605C143.657 73.8605 114.94 95.4509 104.122 125.579C57.5186 135.969 21.6112 174.539 15.1105 222.49C16.8538 167.815 55.6667 122.571 107.283 111.051C118.35 80.2207 147.782 58.1067 182.438 58.1067C192.604 58.1067 202.266 60.0799 211.219 63.5346C233.652 36.446 267.522 19.1916 305.448 19.1916C362.134 19.1916 409.798 57.7555 423.668 110.074C430.522 108.82 437.473 108.175 444.441 108.146C509.698 108.146 562.579 161.04 562.579 226.29C562.566 267.912 541.014 304.407 508.51 325.461Z" fill="#FFEE31"/>
</g>
</g>
</g>
</g>
<defs>
<clipPath id="clip0_2356_4">
<rect width="1495.82" height="350.785" fill="white" transform="translate(2.1792 2.25)"/>
</clipPath>
<clipPath id="clip1_2356_4">
<rect width="1495.82" height="350.785" fill="white" transform="translate(2.1792 2.25)"/>
</clipPath>
<clipPath id="clip2_2356_4">
<rect width="882.177" height="171.503" fill="white" transform="translate(615.825 91.8911)"/>
</clipPath>
<clipPath id="clip3_2356_4">
<rect width="882.177" height="171.503" fill="white" transform="translate(615.825 91.8911)"/>
</clipPath>
<clipPath id="clip4_2356_4">
<rect width="882.177" height="171.503" fill="white" transform="translate(615.825 91.8911)"/>
</clipPath>
<clipPath id="clip5_2356_4">
<rect width="882.177" height="171.503" fill="white" transform="translate(615.825 91.8911)"/>
</clipPath>
<clipPath id="clip6_2356_4">
<rect width="573.158" height="350.785" fill="white" transform="translate(2.1792 2.25)"/>
</clipPath>
<clipPath id="clip7_2356_4">
<rect width="573.158" height="350.785" fill="white" transform="translate(2.1792 2.25)"/>
</clipPath>
</defs>
</svg>
