<svg width="1501" height="349" viewBox="0 0 1501 349" fill="none" xmlns="http://www.w3.org/2000/svg">
<g clip-path="url(#clip0_2352_4)">
<g clip-path="url(#clip1_2352_4)">
<g clip-path="url(#clip2_2352_4)">
<g clip-path="url(#clip3_2352_4)">
<g clip-path="url(#clip4_2352_4)">
<g clip-path="url(#clip5_2352_4)">
<path d="M351.311 258.93C351.311 256.536 351.438 254.174 351.694 251.844C351.917 249.546 352.348 247.599 352.986 246.003C357.295 245.684 360.615 244.886 362.945 243.609C365.243 242.333 366.839 240.098 367.732 236.907C368.594 233.715 369.025 229.167 369.025 223.262V131.339C369.025 125.275 368.594 120.727 367.732 117.695C366.839 114.663 365.243 112.46 362.945 111.088C360.615 109.747 357.216 108.917 352.747 108.598C352.268 107.002 351.917 105.039 351.694 102.709C351.438 100.411 351.311 98.0655 351.311 95.6716C354.183 95.8312 357.535 95.9429 361.365 96.0068C365.195 96.1025 369.185 96.1823 373.334 96.2461C377.483 96.3419 381.313 96.3898 384.824 96.3898C388.335 96.3898 392.006 96.3419 395.836 96.2461C399.666 96.1823 403.416 96.1025 407.087 96.0068C410.757 95.9429 414.188 95.8312 417.38 95.6716C417.38 98.0655 417.3 100.348 417.141 102.518C416.981 104.656 416.582 106.683 415.944 108.598C411.794 108.917 408.523 109.715 406.129 110.992C403.735 112.269 402.06 114.455 401.102 117.551C400.145 120.679 399.666 125.275 399.666 131.339V223.262C399.666 229.167 400.145 233.715 401.102 236.907C402.06 240.098 403.735 242.333 406.129 243.609C408.523 244.886 411.794 245.684 415.944 246.003C416.582 247.439 416.981 249.307 417.141 251.605C417.3 253.935 417.38 256.376 417.38 258.93C413.071 258.611 408.124 258.419 402.538 258.355C396.953 258.259 391.287 258.212 385.542 258.212C379.797 258.212 373.813 258.259 367.589 258.355C361.365 258.419 355.939 258.611 351.311 258.93ZM256.276 258.93C256.276 256.536 256.404 254.174 256.659 251.844C256.883 249.546 257.234 247.599 257.713 246.003C262.022 245.684 265.373 244.886 267.767 243.609C270.16 242.333 271.804 240.098 272.698 236.907C273.56 233.715 273.991 229.167 273.991 223.262V131.339C273.991 125.275 273.56 120.727 272.698 117.695C271.804 114.663 270.16 112.46 267.767 111.088C265.373 109.747 262.022 108.917 257.713 108.598C257.234 107.002 256.883 105.039 256.659 102.709C256.404 100.411 256.276 98.0655 256.276 95.6716C259.149 95.8312 262.5 95.9429 266.33 96.0068C270.16 96.1025 274.118 96.1823 278.204 96.2461C282.257 96.3419 286.039 96.3898 289.55 96.3898C293.221 96.3898 296.971 96.3419 300.801 96.2461C304.631 96.1823 308.382 96.1025 312.052 96.0068C315.723 95.9429 319.154 95.8312 322.346 95.6716C322.346 98.0655 322.266 100.348 322.106 102.518C321.947 104.656 321.468 106.683 320.67 108.598C316.521 108.917 313.249 109.715 310.855 110.992C308.462 112.269 306.834 114.455 305.972 117.551C305.078 120.679 304.631 125.275 304.631 131.339V223.262C304.631 229.167 305.078 233.715 305.972 236.907C306.834 240.098 308.462 242.333 310.855 243.609C313.249 244.886 316.6 245.684 320.909 246.003C321.388 247.439 321.755 249.307 322.01 251.605C322.234 253.935 322.346 256.376 322.346 258.93C317.877 258.611 312.898 258.419 307.408 258.355C301.887 258.259 296.253 258.212 290.508 258.212C284.603 258.212 278.587 258.259 272.459 258.355C266.298 258.419 260.904 258.611 256.276 258.93ZM303.435 183.285V168.444H370.222V181.61C365.913 181.61 360.806 181.61 354.901 181.61C348.997 181.61 342.901 181.641 336.613 181.705C330.293 181.801 324.261 182.009 318.516 182.328C312.77 182.647 307.743 182.966 303.435 183.285ZM545.928 260.366C543.215 255.578 540.901 251.301 538.986 247.535C537.071 243.801 535.315 240.21 533.719 236.763C532.124 233.348 530.368 229.725 528.453 225.895C525.74 219.99 523.107 214.884 520.553 210.575C518 206.266 515.127 202.117 511.936 198.127C508.744 194.137 504.674 189.908 499.727 185.44L508.106 188.073C503.797 188.232 499.967 188.312 496.615 188.312C493.264 188.312 489.753 188.232 486.082 188.073L486.801 174.189C489.194 174.668 491.221 174.987 492.881 175.146C494.573 175.306 496.296 175.386 498.052 175.386C505.552 175.386 512.335 174.157 518.399 171.699C524.463 169.21 529.331 165.411 533.001 160.305C536.672 155.198 538.507 148.735 538.507 140.915C538.507 131.18 535.794 123.36 530.368 117.455C524.942 111.551 516.085 108.598 503.797 108.598C500.765 108.598 497.972 108.79 495.418 109.173C492.865 109.588 490.152 110.194 487.279 110.992L488.716 105.965V222.304C488.716 228.688 489.147 233.555 490.008 236.907C490.902 240.258 492.418 242.524 494.557 243.705C496.727 244.918 499.568 245.684 503.079 246.003C503.717 247.439 504.116 249.355 504.275 251.748C504.435 254.142 504.515 256.536 504.515 258.93C501.323 258.611 497.653 258.419 493.503 258.355C489.354 258.259 485.316 258.212 481.391 258.212C477.497 258.212 474.273 258.212 471.72 258.212C466.772 258.212 461.346 258.259 455.442 258.355C449.537 258.419 444.51 258.611 440.361 258.93C440.361 256.376 440.44 254.014 440.6 251.844C440.76 249.706 441.159 247.759 441.797 246.003C446.106 245.684 449.409 244.886 451.707 243.609C454.037 242.333 455.681 240.098 456.639 236.907C457.596 233.715 458.075 229.167 458.075 223.262V131.1C458.075 125.036 457.596 120.44 456.639 117.312C455.681 114.216 454.037 112.029 451.707 110.753C449.409 109.476 446.026 108.758 441.558 108.598C441.079 106.683 440.76 104.529 440.6 102.135C440.44 99.7411 440.361 97.5867 440.361 95.6716C443.393 95.8312 447.973 95.9908 454.101 96.1504C460.261 96.31 466.533 96.3898 472.917 96.3898C478.981 96.3898 485.715 96.2621 493.12 96.0068C500.557 95.7833 508.185 95.6716 516.005 95.6716C528.772 95.6716 539.145 97.5069 547.125 101.177C555.104 104.848 561.009 109.875 564.839 116.258C568.669 122.642 570.584 129.664 570.584 137.324C570.584 145.782 568.781 153.235 565.174 159.682C561.599 166.161 556.572 171.428 550.093 175.481C543.646 179.567 536.033 182.408 527.256 184.003L529.889 181.131C534.517 184.642 538.347 188.153 541.38 191.664C544.412 195.175 547.524 199.436 550.715 204.447C553.907 209.49 557.737 216.16 562.206 224.459C565.238 229.406 567.903 233.348 570.201 236.284C572.531 239.253 575.212 241.407 578.244 242.748C581.276 244.12 585.266 244.966 590.213 245.285C590.213 247.679 590.086 249.913 589.83 251.988C589.607 254.062 589.256 256.137 588.777 258.212C580.638 258.212 572.85 258.339 565.413 258.595C558.009 258.818 551.513 259.409 545.928 260.366ZM681.657 260.366C666.337 260.366 652.804 256.807 641.058 249.69C629.344 242.604 620.168 232.71 613.529 220.006C606.922 207.335 603.619 192.781 603.619 176.343C603.619 162.619 605.853 150.65 610.321 140.436C614.79 130.222 620.854 121.684 628.514 114.822C636.175 107.96 644.792 102.805 654.368 99.3581C663.943 95.9429 673.917 94.2354 684.29 94.2354C693.866 94.2354 702.962 95.2727 711.58 97.3473C720.197 99.422 728.815 102.534 737.433 106.683C736.316 112.269 735.598 118.205 735.278 124.493C734.959 130.813 734.8 137.244 734.8 143.787C732.725 144.745 730.204 145.415 727.235 145.798C724.299 146.213 721.394 146.42 718.522 146.42C718.203 136.047 716.687 127.988 713.974 122.243C711.261 116.498 707.51 112.508 702.723 110.274C697.935 108.04 692.349 106.923 685.966 106.923C677.029 106.923 669.401 108.678 663.081 112.189C656.793 115.7 651.687 120.408 647.761 126.312C643.867 132.217 640.994 138.92 639.143 146.42C637.324 153.921 636.414 161.741 636.414 169.88C636.414 183.604 638.6 196.052 642.973 207.223C647.378 218.395 653.761 227.172 662.124 233.555C670.518 239.939 680.859 243.131 693.147 243.131C700.01 243.131 707.111 242.013 714.452 239.779C721.793 237.545 728.735 234.433 735.278 230.443C736.555 231.401 737.672 232.789 738.63 234.609C739.587 236.46 740.226 238.183 740.545 239.779C732.246 246.322 723.469 251.381 714.213 254.956C704.957 258.563 694.105 260.366 681.657 260.366ZM816.142 260.366C804.332 260.366 794.118 258.052 785.501 253.424C776.883 248.796 770.308 242.253 765.776 233.795C761.211 225.337 758.929 215.442 758.929 204.111C758.929 192.302 761.451 182.088 766.494 173.471C771.505 164.853 778.399 158.182 787.176 153.458C795.954 148.766 805.848 146.42 816.86 146.42C829.308 146.42 839.808 148.814 848.362 153.602C856.884 158.39 863.379 165.012 867.848 173.471C872.316 181.929 874.551 191.664 874.551 202.675C874.551 214.165 872.125 224.219 867.273 232.837C862.39 241.455 855.608 248.205 846.926 253.089C838.212 257.94 827.951 260.366 816.142 260.366ZM819.014 246.721C827.153 246.721 833.297 243.003 837.446 235.566C841.596 228.161 843.67 218.714 843.67 207.223C843.67 197.169 842.314 188.584 839.601 181.466C836.888 174.38 833.297 169.002 828.829 165.332C824.36 161.661 819.493 159.826 814.227 159.826C805.928 159.826 799.784 163.417 795.794 170.598C791.804 177.779 789.81 186.796 789.81 197.648C789.81 207.543 791.006 216.192 793.4 223.597C795.794 231.034 799.145 236.747 803.454 240.737C807.763 244.726 812.95 246.721 819.014 246.721ZM938.705 158.39L909.261 207.702V184.722C909.261 180.413 908.91 176.982 908.208 174.428C907.474 171.875 905.878 169.96 903.42 168.683C900.931 167.406 897.052 166.608 891.786 166.289C891.786 164.055 891.946 161.932 892.265 159.922C892.584 157.943 893.222 156.155 894.18 154.559C901.361 154.24 908.591 153.283 915.868 151.687C923.113 150.091 928.651 148.336 932.481 146.42C934.236 147.059 935.721 148.288 936.933 150.107C938.114 151.958 938.705 154.719 938.705 158.39ZM1012.43 186.637V225.177C1012.43 233.316 1013.47 238.822 1015.55 241.694C1017.62 244.567 1020.89 246.003 1025.36 246.003C1026.16 247.759 1026.64 249.626 1026.8 251.605C1026.96 253.615 1027.04 256.057 1027.04 258.93C1023.53 258.611 1019.22 258.419 1014.11 258.355C1009 258.259 1003.9 258.212 998.79 258.212C995.438 258.212 991.736 258.259 987.682 258.355C983.597 258.419 979.719 258.499 976.048 258.595C972.378 258.658 969.266 258.77 966.712 258.93C966.712 256.376 966.84 254.014 967.095 251.844C967.319 249.706 967.75 247.759 968.388 246.003C973.335 246.003 977.054 244.439 979.543 241.311C982.001 238.215 983.23 232.518 983.23 224.219V194.297C983.23 183.604 981.442 176.295 977.868 172.369C974.261 168.476 969.425 166.529 963.361 166.529C959.371 166.529 955.462 167.917 951.631 170.694C947.801 173.503 944.689 177.779 942.296 183.525C939.902 189.27 938.705 196.611 938.705 205.548V225.177C938.705 233.156 939.822 238.614 942.056 241.551C944.29 244.519 948.12 246.003 953.546 246.003C954.185 247.918 954.584 249.865 954.743 251.844C954.903 253.855 954.983 256.217 954.983 258.93C952.749 258.77 949.876 258.658 946.365 258.595C942.854 258.499 939.152 258.419 935.258 258.355C931.332 258.259 927.534 258.212 923.863 258.212C920.512 258.212 916.762 258.259 912.612 258.355C908.463 258.419 904.521 258.499 900.787 258.595C897.021 258.658 893.941 258.77 891.547 258.93C891.547 256.217 891.674 253.743 891.93 251.509C892.153 249.275 892.584 247.439 893.222 246.003C899.446 246.003 903.675 244.519 905.91 241.551C908.144 238.614 909.261 233.156 909.261 225.177V184.722L938.705 158.39C938.705 160.305 938.545 162.491 938.226 164.949C937.907 167.438 937.348 170.039 936.55 172.752C937.348 171.157 938.114 169.561 938.848 167.965C939.551 166.369 940.62 164.853 942.056 163.417C945.088 159.746 949.525 156.187 955.366 152.74C961.175 149.325 968.069 147.617 976.048 147.617C982.432 147.617 988.416 148.894 994.002 151.448C999.588 154.001 1004.06 158.102 1007.41 163.752C1010.76 169.433 1012.43 177.061 1012.43 186.637ZM1090.71 158.39L1061.27 207.702V184.722C1061.27 180.413 1060.9 176.982 1060.17 174.428C1059.46 171.875 1057.87 169.96 1055.38 168.683C1052.92 167.406 1049.06 166.608 1043.79 166.289C1043.79 164.055 1043.95 161.932 1044.27 159.922C1044.59 157.943 1045.23 156.155 1046.19 154.559C1053.37 154.24 1060.58 153.283 1067.83 151.687C1075.1 150.091 1080.66 148.336 1084.49 146.42C1086.24 147.059 1087.71 148.288 1088.89 150.107C1090.11 151.958 1090.71 154.719 1090.71 158.39ZM1164.44 186.637V225.177C1164.44 233.316 1165.48 238.822 1167.55 241.694C1169.63 244.567 1172.9 246.003 1177.37 246.003C1178.17 247.759 1178.64 249.626 1178.8 251.605C1178.96 253.615 1179.04 256.057 1179.04 258.93C1175.53 258.611 1171.22 258.419 1166.12 258.355C1161.01 258.259 1155.9 258.212 1150.8 258.212C1147.45 258.212 1143.73 258.259 1139.64 258.355C1135.59 258.419 1131.73 258.499 1128.06 258.595C1124.39 258.658 1121.27 258.77 1118.72 258.93C1118.72 256.376 1118.83 254.014 1119.05 251.844C1119.31 249.706 1119.76 247.759 1120.4 246.003C1125.34 246.003 1129.04 244.439 1131.5 241.311C1133.99 238.215 1135.24 232.518 1135.24 224.219V194.297C1135.24 183.604 1133.43 176.295 1129.83 172.369C1126.25 168.476 1121.43 166.529 1115.37 166.529C1111.38 166.529 1107.47 167.917 1103.64 170.694C1099.81 173.503 1096.7 177.779 1094.3 183.525C1091.91 189.27 1090.71 196.611 1090.71 205.548V225.177C1090.71 233.156 1091.83 238.614 1094.06 241.551C1096.3 244.519 1100.13 246.003 1105.55 246.003C1106.19 247.918 1106.59 249.865 1106.75 251.844C1106.91 253.855 1106.99 256.217 1106.99 258.93C1104.76 258.77 1101.88 258.658 1098.37 258.595C1094.86 258.499 1091.14 258.419 1087.22 258.355C1083.32 258.259 1079.54 258.212 1075.87 258.212C1072.52 258.212 1068.77 258.259 1064.62 258.355C1060.47 258.419 1056.51 258.499 1052.75 258.595C1049.01 258.658 1045.95 258.77 1043.55 258.93C1043.55 256.217 1043.67 253.743 1043.89 251.509C1044.14 249.275 1044.59 247.439 1045.23 246.003C1051.45 246.003 1055.68 244.519 1057.92 241.551C1060.15 238.614 1061.27 233.156 1061.27 225.177V184.722L1090.71 158.39C1090.71 160.305 1090.55 162.491 1090.23 164.949C1089.91 167.438 1089.36 170.039 1088.56 172.752C1089.36 171.157 1090.11 169.561 1090.81 167.965C1091.54 166.369 1092.63 164.853 1094.06 163.417C1097.1 159.746 1101.52 156.187 1107.33 152.74C1113.17 149.325 1120.08 147.617 1128.06 147.617C1134.44 147.617 1140.42 148.894 1146.01 151.448C1151.59 154.001 1156.06 158.102 1159.41 163.752C1162.77 169.433 1164.44 177.061 1164.44 186.637ZM1250.86 260.366C1238.25 260.366 1227.91 257.845 1219.83 252.802C1211.79 247.791 1205.81 240.976 1201.88 232.358C1197.99 223.741 1196.04 214.245 1196.04 203.872C1196.04 192.86 1198.19 183.046 1202.5 174.428C1206.81 165.81 1212.96 158.98 1220.94 153.937C1228.91 148.926 1238.33 146.42 1249.18 146.42C1260.19 146.42 1269.13 148.607 1275.99 152.98C1282.86 157.384 1287.99 163.417 1291.41 171.077C1294.86 178.737 1296.82 187.355 1297.3 196.93C1296.34 200.92 1294.66 204.271 1292.27 206.984C1288.76 206.984 1284.16 206.984 1278.48 206.984C1272.83 206.984 1266.66 207.016 1259.95 207.08C1253.25 207.175 1246.42 207.383 1239.46 207.702C1232.54 208.021 1225.96 208.34 1219.74 208.66V194.297H1267.61C1267.61 183.604 1265.94 175.178 1262.59 169.018C1259.24 162.89 1254.37 159.826 1247.99 159.826C1244.16 159.826 1240.6 161.055 1237.31 163.512C1234.05 166.002 1231.42 169.992 1229.41 175.481C1227.43 181.003 1226.44 188.472 1226.44 197.887C1226.44 206.026 1227.43 213.607 1229.41 220.629C1231.42 227.651 1234.9 233.316 1239.85 237.625C1244.79 241.934 1251.66 244.088 1260.43 244.088C1265.86 244.088 1271.21 243.003 1276.47 240.833C1281.74 238.694 1286.29 235.71 1290.12 231.88C1291.55 232.678 1292.91 234.114 1294.19 236.189C1295.46 238.263 1296.1 240.258 1296.1 242.173C1290.36 248.557 1283.77 253.185 1276.33 256.057C1268.92 258.93 1260.43 260.366 1250.86 260.366ZM1409.04 242.412C1404.89 248.158 1399.47 252.578 1392.76 255.674C1386.06 258.802 1378.16 260.366 1369.06 260.366C1359.33 260.366 1350.36 258.291 1342.16 254.142C1333.92 249.993 1327.33 243.721 1322.39 235.327C1317.44 226.964 1314.96 216.479 1314.96 203.872C1314.96 194.297 1316.96 185.12 1320.95 176.343C1324.94 167.566 1330.89 160.384 1338.81 154.799C1346.69 149.213 1356.46 146.42 1368.11 146.42C1376.25 146.42 1383.51 147.25 1389.89 148.91C1396.27 150.602 1401.86 153.203 1406.65 156.714C1405.85 161.342 1405.29 165.938 1404.97 170.502C1404.65 175.035 1404.49 180.014 1404.49 185.44C1402.42 186.397 1399.94 187.067 1397.07 187.45C1394.2 187.865 1391.49 188.073 1388.93 188.073C1388.29 178.817 1386.06 171.763 1382.23 166.912C1378.4 162.028 1373.37 159.586 1367.15 159.586C1360.13 159.586 1354.59 163.225 1350.54 170.502C1346.45 177.748 1344.41 187.674 1344.41 200.281C1344.41 207.622 1345.61 214.644 1348 221.347C1350.39 228.05 1354.06 233.507 1359.01 237.721C1363.96 241.966 1370.18 244.088 1377.68 244.088C1382.79 244.088 1387.5 243.083 1391.81 241.072C1396.11 239.093 1399.94 236.348 1403.3 232.837C1404.73 233.795 1405.98 235.103 1407.03 236.763C1408.05 238.455 1408.72 240.338 1409.04 242.412ZM1468.41 260.366C1457.88 260.366 1450.02 257.653 1444.85 252.227C1439.65 246.801 1437.05 237.864 1437.05 225.416V167.247C1434.66 166.289 1432.15 165.571 1429.53 165.092C1426.88 164.613 1423.56 164.294 1419.57 164.135C1419.57 161.581 1419.78 159.299 1420.2 157.288C1420.58 155.31 1421.25 153.203 1422.21 150.969H1437.05V120.567C1441.52 119.769 1445.95 118.365 1450.36 116.354C1454.73 114.375 1458.35 112.189 1461.23 109.795C1463.3 110.593 1464.66 111.79 1465.3 113.386C1465.93 114.982 1466.25 118.413 1466.25 123.679V150.969H1496.42C1496.42 153.363 1496.26 155.677 1495.94 157.911C1495.62 160.145 1495.06 162.299 1494.26 164.374C1488.68 164.374 1483.62 164.693 1479.08 165.332C1474.52 165.97 1470.24 166.768 1466.25 167.725V221.107C1466.25 227.012 1466.78 231.72 1467.83 235.231C1468.85 238.742 1470.32 241.216 1472.24 242.652C1474.15 244.088 1476.55 244.806 1479.42 244.806C1482.29 244.806 1484.97 244.407 1487.46 243.609C1489.92 242.811 1492.27 241.694 1494.5 240.258C1496.73 242.971 1497.93 246.402 1498.09 250.551C1495.22 253.264 1490.96 255.578 1485.31 257.493C1479.63 259.409 1473.99 260.366 1468.41 260.366Z" fill="#FFEE31"/>
</g>
</g>
</g>
</g>
<g clip-path="url(#clip6_2352_4)">
<g clip-path="url(#clip7_2352_4)">
<path fill-rule="evenodd" clip-rule="evenodd" d="M153.741 69.8165C170.974 69.8165 184.944 55.8463 184.944 38.6094C184.944 21.3726 170.974 7.4062 153.741 7.4062C145.465 7.4062 137.528 10.6939 131.676 16.546C125.824 22.3981 122.536 30.3353 122.536 38.6114C122.536 46.8875 125.824 54.8247 131.676 60.6768C137.528 66.5289 145.465 69.8165 153.741 69.8165ZM153.741 16.0748C159.718 16.0748 165.451 18.4492 169.677 22.6756C173.903 26.9021 176.278 32.6343 176.278 38.6114C176.278 44.5884 173.903 50.3207 169.677 54.5471C165.451 58.7735 159.718 61.1479 153.741 61.1479C150.757 61.187 147.794 60.6329 145.026 59.5179C142.257 58.4028 139.738 56.749 137.614 54.6524C135.49 52.5558 133.803 50.0582 132.652 47.3046C131.501 44.5509 130.908 41.596 130.908 38.6114C130.908 35.6268 131.501 32.6719 132.652 29.9182C133.803 27.1645 135.49 24.6669 137.614 22.5703C139.738 20.4737 142.257 18.8199 145.026 17.7049C147.794 16.5898 150.757 16.0358 153.741 16.0748ZM216.291 126.47C211.657 97.3361 185.416 75.0177 153.741 75.0177C136.52 75.0177 120.943 81.6476 109.533 92.3511C98.123 81.6476 82.5426 75.0177 65.3211 75.0177C33.5889 75.0177 7.3204 97.4133 2.74861 126.624C2.31614 127.431 2.04199 128.663 2.04199 130.493V194.641C2.04389 198.074 2.97258 201.443 4.73003 204.392C6.48749 207.341 9.00851 209.761 12.027 211.396C15.0455 213.031 18.4494 213.821 21.8796 213.682C25.3097 213.543 28.6388 212.481 31.5154 210.608V328.13C31.5152 332.061 32.7298 335.896 34.993 339.11C37.2562 342.323 40.4574 344.759 44.1582 346.084C47.8591 347.408 51.8788 347.556 55.6672 346.508C59.4556 345.46 62.8274 343.266 65.3211 340.228C67.8149 343.266 71.1867 345.46 74.975 346.508C78.7634 347.556 82.7831 347.408 86.484 346.084C90.1849 344.759 93.386 342.323 95.6492 339.11C97.9124 335.896 99.1271 332.061 99.1269 328.13V210.608C99.9648 211.156 100.857 211.623 101.78 212.036C102.112 212.183 102.459 212.295 102.799 212.43C103.537 212.708 104.293 212.948 105.069 213.137C105.413 213.218 105.753 213.303 106.104 213.368C107.22 213.577 108.355 213.716 109.529 213.716C111.031 213.704 112.526 213.51 113.981 213.137C114.773 212.944 115.545 212.708 116.302 212.415C116.622 212.295 116.947 212.187 117.256 212.048C118.185 211.64 119.081 211.16 119.935 210.611V328.134C119.936 332.064 121.151 335.898 123.414 339.11C125.677 342.323 128.878 344.758 132.578 346.082C136.278 347.407 140.296 347.555 144.084 346.508C147.872 345.461 151.243 343.269 153.737 340.232C156.232 343.269 159.603 345.461 163.391 346.508C167.178 347.555 171.197 347.407 174.897 346.082C178.597 344.758 181.797 342.323 184.06 339.11C186.323 335.898 187.539 332.064 187.539 328.134V210.608C190.629 212.636 194.245 213.716 197.942 213.712C200.448 213.711 202.929 213.216 205.243 212.256C207.558 211.296 209.661 209.889 211.431 208.116C213.202 206.342 214.606 204.238 215.563 201.922C216.52 199.606 217.011 197.124 217.009 194.618V130.393C217.02 128.528 216.739 127.277 216.291 126.47ZM91.1687 126.624C90.7363 127.431 90.4621 128.663 90.4621 130.493V328.13C90.4621 330.889 89.3662 333.535 87.4153 335.486C85.4645 337.437 82.8186 338.533 80.0598 338.533C77.3009 338.533 74.655 337.437 72.7042 335.486C70.7533 333.535 69.6574 330.889 69.6574 328.13V204.175C69.6574 203.025 69.2007 201.923 68.3879 201.11C67.575 200.297 66.4726 199.84 65.3231 199.84C64.1735 199.84 63.0711 200.297 62.2582 201.11C61.4454 201.923 60.9887 203.025 60.9887 204.175V328.134C60.9887 330.893 59.8928 333.539 57.942 335.49C55.9911 337.441 53.3453 338.537 50.5864 338.537C47.8275 338.537 45.1816 337.441 43.2308 335.49C41.28 333.539 40.184 330.893 40.184 328.134V134.829C40.184 133.679 39.7272 132.576 38.9139 131.763C38.1007 130.95 36.9978 130.493 35.8478 130.493C34.6977 130.493 33.5948 130.95 32.7816 131.763C31.9684 132.576 31.5115 133.679 31.5115 134.829V194.641C31.5115 197.4 30.4155 200.046 28.4647 201.997C26.5139 203.948 23.868 205.043 21.1091 205.043C18.3503 205.043 15.7044 203.948 13.7536 201.997C11.8027 200.046 10.7068 197.4 10.7068 194.641V135.698C10.7068 106.974 35.3612 83.6864 65.3173 83.6864C80.1833 83.6864 93.7327 89.432 103.625 98.7223C97.2233 106.696 92.7982 116.21 91.1687 126.624ZM119.935 194.614C119.973 196.004 119.732 197.387 119.227 198.683C118.721 199.978 117.961 201.158 116.991 202.155C116.021 203.151 114.862 203.943 113.581 204.484C112.3 205.025 110.924 205.304 109.533 205.304C108.143 205.304 106.766 205.025 105.485 204.484C104.205 203.943 103.045 203.151 102.075 202.155C101.106 201.158 100.345 199.978 99.8397 198.683C99.3339 197.387 99.0929 196.004 99.1308 194.614V135.698C99.1308 124.346 103.027 113.874 109.533 105.321C116.043 113.874 119.935 124.346 119.935 135.698V194.614ZM208.352 194.614C208.353 195.981 208.085 197.334 207.563 198.597C207.041 199.86 206.275 201.008 205.309 201.975C204.344 202.942 203.197 203.709 201.935 204.233C200.673 204.757 199.32 205.027 197.953 205.028C196.586 205.028 195.233 204.758 193.97 204.234C192.708 203.71 191.561 202.943 190.595 201.976C189.629 201.009 188.863 199.861 188.34 198.598C187.818 197.335 187.55 195.981 187.551 194.614V148.699C187.517 147.572 187.046 146.502 186.237 145.717C185.427 144.932 184.344 144.492 183.217 144.492C182.089 144.492 181.006 144.932 180.196 145.717C179.387 146.502 178.916 147.572 178.882 148.699V328.134C178.882 330.893 177.786 333.538 175.836 335.488C173.886 337.439 171.24 338.535 168.482 338.535C165.723 338.535 163.078 337.439 161.128 335.488C159.177 333.538 158.081 330.893 158.081 328.134V204.175C158.081 203.025 157.625 201.923 156.812 201.11C155.999 200.297 154.897 199.84 153.747 199.84C152.598 199.84 151.495 200.297 150.682 201.11C149.869 201.923 149.413 203.025 149.413 204.175V328.134C149.413 330.893 148.317 333.538 146.367 335.488C144.416 337.439 141.771 338.535 139.012 338.535C136.254 338.535 133.609 337.439 131.658 335.488C129.708 333.538 128.612 330.893 128.612 328.134V130.397C128.612 128.532 128.334 127.281 127.886 126.474C126.237 116.121 121.824 106.657 115.441 98.7223C125.334 89.432 138.883 83.6864 153.749 83.6864C183.705 83.6864 208.359 106.974 208.359 135.698V194.614H208.352ZM65.325 69.8165C69.4232 69.8165 73.4812 69.0094 77.2674 67.441C81.0537 65.8727 84.4939 63.574 87.3918 60.6762C90.2896 57.7784 92.5883 54.3381 94.1566 50.5519C95.7249 46.7657 96.5321 42.7076 96.5321 38.6094C96.5321 34.5113 95.7249 30.4532 94.1566 26.667C92.5883 22.8808 90.2896 19.4405 87.3918 16.5427C84.4939 13.6448 81.0537 11.3461 77.2674 9.77784C73.4812 8.20954 69.4232 7.40234 65.325 7.40234C57.0483 7.40183 49.1105 10.6892 43.2577 16.5413C37.4048 22.3934 34.1165 30.3309 34.116 38.6075C34.1154 46.8842 37.4028 54.822 43.2549 60.6748C49.107 66.5277 57.0483 69.816 65.325 69.8165ZM65.325 16.0748C68.2845 16.0746 71.2151 16.6573 73.9495 17.7896C76.6838 18.9219 79.1684 20.5817 81.2613 22.6743C83.3542 24.7668 85.0144 27.2511 86.1472 29.9852C87.28 32.7194 87.8632 35.6499 87.8635 38.6094C87.8637 41.569 87.281 44.4996 86.1487 47.2339C85.0164 49.9683 83.3566 52.4529 81.264 54.5457C79.1715 56.6386 76.6872 58.2989 73.9531 59.4317C71.2189 60.5645 68.2884 61.1477 65.3288 61.1479C59.3518 61.1484 53.6193 58.7745 49.3925 54.5485C45.1658 50.3224 42.7909 44.5904 42.7904 38.6133C42.7899 32.6362 45.1638 26.9038 49.3898 22.677C53.6159 18.4502 59.3479 16.0754 65.325 16.0748Z" fill="#FFEE31"/>
</g>
</g>
</g>
</g>
<defs>
<clipPath id="clip0_2352_4">
<rect width="1496.1" height="339.797" fill="white" transform="translate(2.04199 7.40234)"/>
</clipPath>
<clipPath id="clip1_2352_4">
<rect width="1496.1" height="339.797" fill="white" transform="translate(2.04199 7.40234)"/>
</clipPath>
<clipPath id="clip2_2352_4">
<rect width="1241.91" height="166.131" fill="white" transform="translate(256.229 94.2354)"/>
</clipPath>
<clipPath id="clip3_2352_4">
<rect width="1241.91" height="166.131" fill="white" transform="translate(256.229 94.2354)"/>
</clipPath>
<clipPath id="clip4_2352_4">
<rect width="1241.91" height="166.131" fill="white" transform="translate(256.229 94.2354)"/>
</clipPath>
<clipPath id="clip5_2352_4">
<rect width="1241.91" height="166.131" fill="white" transform="translate(256.229 94.2354)"/>
</clipPath>
<clipPath id="clip6_2352_4">
<rect width="214.967" height="339.797" fill="white" transform="translate(2.04199 7.40234)"/>
</clipPath>
<clipPath id="clip7_2352_4">
<rect width="214.967" height="339.797" fill="white" transform="translate(2.04199 7.40234)"/>
</clipPath>
</defs>
</svg>
