<svg width="155" height="155" viewBox="0 0 155 155" fill="none" xmlns="http://www.w3.org/2000/svg">
<path d="M80.0808 118.794H121.026V74.7594H80.0808V118.794ZM90.5329 90.5251C90.5319 90.3222 90.5914 90.1235 90.7039 89.9546C90.8163 89.7857 90.9766 89.6542 91.1642 89.5769C91.289 89.5263 91.4229 89.5003 91.5576 89.5011L109.534 89.5156C109.669 89.5149 109.803 89.5409 109.927 89.5921C110.052 89.6433 110.165 89.7187 110.26 89.8139C110.356 89.9091 110.431 90.0223 110.482 90.1469C110.534 90.2714 110.56 90.4049 110.559 90.5396L110.545 103.014C110.545 103.149 110.519 103.283 110.468 103.407C110.417 103.532 110.341 103.645 110.246 103.74C110.151 103.836 110.037 103.911 109.913 103.962C109.788 104.014 109.655 104.04 109.52 104.039L91.5431 104.025C91.4083 104.025 91.2748 103.999 91.1502 103.948C91.0256 103.897 90.9124 103.821 90.8171 103.726C90.7218 103.631 90.6464 103.517 90.5951 103.393C90.5438 103.268 90.5177 103.135 90.5183 103L90.5329 90.5251Z" fill="#FFEE31"/>
<path fill-rule="evenodd" clip-rule="evenodd" d="M116.341 26.7086C118.919 24.9855 121.95 24.0658 125.051 24.0659C129.209 24.0685 133.195 25.7211 136.134 28.6606C139.074 31.6002 140.727 35.5863 140.73 39.7436C140.73 42.4526 140.029 45.1154 138.694 47.4727C137.359 49.8299 135.436 51.8011 133.113 53.194C130.789 54.587 128.145 55.3542 125.436 55.4208C122.728 55.4875 120.049 54.8513 117.66 53.5744C115.271 52.2975 113.253 50.4233 111.804 48.1346C110.355 45.8459 109.523 43.2208 109.39 40.515C109.257 37.8093 109.828 35.1153 111.046 32.6957C112.264 30.2761 114.089 28.2133 116.341 26.7086ZM115.068 37.2257H135.02V42.2615H115.068V37.2257Z" fill="#FFEE31"/>
<path d="M80.0662 53.0947V63.21H121.011V54.8955H121.026C119.549 54.5047 118.138 53.8979 116.839 53.0947H80.0662Z" fill="#1C212D"/>
<path d="M35.0803 55.9052V143.021H43.0588V127.153H72.0731L71.9965 55.9052C71.996 52.1621 72.7329 48.4556 74.1651 44.9973C75.5973 41.5391 77.6968 38.3969 80.3436 35.7502C82.9904 33.1035 86.1326 31.0041 89.5909 29.572C93.0492 28.1399 96.7557 27.4031 100.499 27.4037H63.5826C56.0239 27.4053 48.7753 30.4086 43.4305 35.7533C38.0857 41.098 35.0821 48.3465 35.0803 55.9052Z" fill="#1C212D"/>
<path d="M121.026 74.7602V118.779H80.0662V74.7602H121.026Z" stroke="#1C212D" stroke-width="0.769171" stroke-linecap="round" stroke-linejoin="round"/>
<path d="M112.681 30.126C108.873 28.3283 104.713 27.3985 100.502 27.4037" stroke="#1C212D" stroke-width="0.769171" stroke-linecap="round" stroke-linejoin="round"/>
<path d="M72.0801 127.153V143.007H80.0662V127.153H121.026V143.007H129.003C129.003 143.007 129.003 55.2613 128.989 54.9246" stroke="#1C212D" stroke-width="0.769171" stroke-linecap="round" stroke-linejoin="round"/>
<path d="M100.502 27.4037H63.5826C56.0239 27.4053 48.7753 30.4086 43.4305 35.7533C38.0857 41.098 35.0821 48.3465 35.0803 55.9052V143.007H43.0588V127.153H72.08V55.9052C72.0718 52.1667 72.8008 48.4633 74.2253 45.0069C75.6498 41.5504 77.7417 38.4087 80.3815 35.7616C83.0213 33.1144 86.1571 31.0136 89.6096 29.5795C93.062 28.1454 96.7634 27.406 100.502 27.4037Z" stroke="#1C212D" stroke-width="0.769171" stroke-linecap="round" stroke-linejoin="round"/>
<path d="M121.026 54.9246V63.21H80.0662V53.0947H116.824" stroke="#1C212D" stroke-width="0.769171" stroke-linecap="round" stroke-linejoin="round"/>
<path d="M146 83.851V91.932" stroke="#1C212D" stroke-width="0.769171" stroke-linecap="round" stroke-linejoin="round"/>
<path d="M150.04 87.891H141.959" stroke="#1C212D" stroke-width="0.769171" stroke-linecap="round" stroke-linejoin="round"/>
<path d="M109.373 39.7437C109.373 43.9021 111.024 47.8902 113.965 50.8308C116.905 53.7714 120.893 55.4235 125.051 55.4237C129.21 55.4239 133.198 53.7722 136.138 50.8319C139.079 47.8916 140.731 43.9036 140.731 39.7452C140.731 37.6862 140.326 35.6473 139.538 33.745C138.75 31.8427 137.595 30.1141 136.139 28.6581C134.684 27.2021 132.955 26.0471 131.053 25.259C129.151 24.471 127.112 24.0653 125.053 24.0652C122.994 24.0651 120.955 24.4706 119.053 25.2585C117.15 26.0463 115.422 27.2012 113.966 28.657C111.025 31.5973 109.373 35.5853 109.373 39.7437Z" stroke="#1C212D" stroke-width="0.769171" stroke-linecap="round" stroke-linejoin="round"/>
<path d="M135.02 42.2618H115.068V37.226H135.02V42.2618Z" stroke="#1C212D" stroke-width="0.769171" stroke-linecap="round" stroke-linejoin="round"/>
<path d="M33.7633 15.3261C33.4353 15.2921 33.1262 15.1567 32.8789 14.9387C32.6315 14.7206 32.4584 14.4309 32.3836 14.1098C32.3088 13.7887 32.336 13.4523 32.4615 13.1474C32.587 12.8425 32.8044 12.5844 33.0836 12.4089C33.3627 12.2335 33.6897 12.1496 34.0188 12.1688C34.3479 12.188 34.6629 12.3094 34.9197 12.5161C35.1766 12.7228 35.3625 13.0044 35.4517 13.3218C35.5409 13.6393 35.5288 13.9766 35.4171 14.2868" stroke="#1C212D" stroke-width="0.769171" stroke-linecap="round" stroke-linejoin="round"/>
<path d="M39.2975 17.2148C40.0735 18.8687 39.8516 20.622 38.6975 21.3575C37.5434 22.093 35.8864 21.5481 34.7178 20.172" stroke="#1C212D" stroke-width="0.769171" stroke-linecap="round" stroke-linejoin="round"/>
<path d="M38.6375 13.5405C40.7445 13.826 42.3417 14.8576 42.2093 15.8533C42.0769 16.849 40.2623 17.4199 38.1531 17.1413C36.0438 16.8628 34.5813 14.8285 34.5813 14.8285C34.5813 14.8285 36.5291 13.255 38.6375 13.5405Z" stroke="#1C212D" stroke-width="0.769171" stroke-linecap="round" stroke-linejoin="round"/>
<path d="M31.6991 17.9609C31.0693 19.9959 31.3326 21.8862 32.2846 22.1771C33.2497 22.4717 34.5408 21.065 35.1684 19.0446C35.7998 17.0103 34.5829 14.8284 34.5829 14.8284C34.5829 14.8284 32.3282 15.9266 31.6991 17.9609Z" stroke="#1C212D" stroke-width="0.769171" stroke-linecap="round" stroke-linejoin="round"/>
<path d="M35.0803 84.1142C51.3894 85.2124 68.2082 76.6048 72.4978 50.6059" stroke="#1C212D" stroke-width="0.769171" stroke-linecap="round" stroke-linejoin="round"/>
<path d="M72.0141 63.9684C72.0287 80.6862 63.6116 114.502 35.0803 123.434" stroke="#1C212D" stroke-width="0.769171" stroke-linecap="round" stroke-linejoin="round"/>
<path d="M39.136 84.2023C43.2052 94.6398 49.3393 102.399 58.4298 106.336" stroke="#1C212D" stroke-width="0.769171" stroke-linecap="round" stroke-linejoin="round"/>
<path d="M58.6204 77.2638C60.4701 81.6958 63.7063 85.4089 67.8441 87.8467" stroke="#1C212D" stroke-width="0.769171" stroke-linecap="round" stroke-linejoin="round"/>
<path d="M71.9996 58.2769C71.9996 58.2769 67.2125 89.0919 35.0803 97.085" stroke="#1C212D" stroke-width="0.769171" stroke-linecap="round" stroke-linejoin="round"/>
<path d="M71.9996 63.2104C71.9996 63.2104 66.0125 100.92 35.0803 110.333" stroke="#1C212D" stroke-width="0.769171" stroke-linecap="round" stroke-linejoin="round"/>
<path d="M17.1918 115.969C17.9005 114.367 17.9458 112.549 17.3175 110.914C16.6892 109.279 15.4387 107.959 13.8396 107.244C12.2227 106.575 10.4074 106.568 8.78545 107.225C7.16351 107.882 5.86497 109.151 5.17004 110.757C4.47484 112.363 4.43858 114.177 5.0691 115.809C5.69961 117.442 6.94637 118.761 8.54053 119.482C9.74329 119.993 11.0706 120.134 12.354 119.889C13.6373 119.643 14.8188 119.022 15.7484 118.104C16.3653 117.494 16.8558 116.768 17.1918 115.969Z" stroke="#1C212D" stroke-width="0.769171" stroke-linecap="round" stroke-linejoin="round"/>
<path d="M9.72607 117.038L14.8645 111.841C15.0839 112.333 15.1985 112.866 15.201 113.406C15.2035 113.945 15.0938 114.479 14.879 114.974C14.4569 115.92 13.6829 116.665 12.7209 117.05C11.759 117.436 10.6848 117.431 9.72607 117.038Z" stroke="#1C212D" stroke-width="0.769171" stroke-linecap="round" stroke-linejoin="round"/>
<path d="M12.7269 109.735L7.54487 114.976C7.30629 114.477 7.17757 113.932 7.1674 113.379C7.15723 112.826 7.26586 112.277 7.48594 111.77C7.9134 110.807 8.70458 110.053 9.68661 109.671C10.6686 109.29 11.7617 109.313 12.7269 109.735Z" stroke="#1C212D" stroke-width="0.769171" stroke-linecap="round" stroke-linejoin="round"/>
<path d="M14.4985 143.007H148.371" stroke="#1C212D" stroke-width="0.769171" stroke-linecap="round" stroke-linejoin="round"/>
<path d="M116.824 53.0948H80.0662V49.3914H112.696" stroke="#1C212D" stroke-width="0.769171" stroke-linecap="round" stroke-linejoin="round"/>
<path d="M90.8252 89.8088L100.546 96.7771L110.208 89.7652" stroke="#1C212D" stroke-width="0.769171" stroke-linecap="round" stroke-linejoin="round"/>
<path d="M109.52 89.5092H91.5722C91.0028 89.5092 90.5405 89.9714 90.5405 90.5408V103C90.5405 103.57 91.0028 104.031 91.5722 104.031H109.52C110.089 104.031 110.551 103.57 110.551 103V90.5408C110.551 89.9714 110.089 89.5092 109.52 89.5092Z" stroke="#1C212D" stroke-width="0.769171" stroke-linecap="round" stroke-linejoin="round"/>
</svg>
